<?xml version="1.0" encoding="UTF-8"?>
<!-- Generator: visioncortex VTracer 0.6.12 -->
<svg version="1.1" xmlns="http://www.w3.org/2000/svg" width="1536" height="1024">
<path d="M0 0 C7.19 4.79 12.71 10.38 18.38 16.88 C21.29 20.2 24.37 23.37 27.5 26.5 C30.47 29.47 33.4 32.47 36.15 35.64 C40.93 41.06 46.01 46.15 51.12 51.25 C52.1 52.23 53.08 53.21 54.08 54.22 C58.25 58.38 62.39 62.31 67 66 C68.2 67.38 69.39 68.76 70.62 70.19 C74 74 74 74 77 75 C81.73 72.75 86.36 70.43 91 68 C100.85 62.88 110.51 58.64 121 55 C121.33 54.67 121.33 54.67 123 53 C123.66 53.33 124.32 53.66 125 54 C127.89 53.44 130.76 52.8 133.62 52.12 C142.13 50.11 150.26 48.92 159 48.68 C160.46 48.64 161.93 48.6 163.43 48.56 C164.94 48.52 166.45 48.48 168 48.44 C168.77 48.42 168.77 48.42 172.66 48.31 C176.44 48.2 180.22 48.1 184 48 C184.28 46.52 184.56 45.04 184.85 43.51 C185.83 38.84 186.96 34.37 188.38 29.81 C188.77 28.5 189.17 27.19 189.59 25.83 C191.69 20.12 193.81 16 198.5 12.06 C205.47 8.87 211.66 8.94 218.94 11.25 C224.01 14.68 228.3 18.66 232.73 22.89 C235.65 25.67 238.69 28.31 241.75 30.94 C246 35 246 35 247 40 C248.98 40 250.96 40 253 40 C253 40.99 253 41.98 253 43 C254.23 42.96 255.45 42.93 256.71 42.89 C262.8 43.02 268.55 43.85 274.56 44.81 C276.71 45.15 278.86 45.49 281.07 45.83 C286.13 46.83 290.25 48.09 295 50 C301.89 52.27 308.79 54.51 315.69 56.75 C320.63 58.51 324.52 60.41 329 63 C330.65 63 332.3 63 334 63 C334.66 64.32 335.32 65.64 336 67 C339.65 69.36 343.32 71.69 347 74 C359.82 84.08 370.45 94.55 380.44 107.44 C386 113 392.1 116.94 398.7 121.19 C403.34 124.22 407.63 127.59 412 131 C413.65 131.66 415.3 132.32 417 133 C417.66 134.65 418.32 136.3 419 138 C421.6 140.09 424.26 142.1 427 144 C427 143.01 427 142.02 427 141 C427.99 141 428.98 141 430 141 C430.33 143.31 430.66 145.62 431 148 C432.98 149.65 434.96 151.3 437 153 C437.99 154.98 438.98 156.96 440 159 C444 163 444 163 448 164 C448 164.99 448 165.98 448 167 C448.99 167 449.98 167 451 167 C451.33 168.32 451.66 169.64 452 171 C451.34 171.33 450.68 171.66 450 172 C451.7 174.09 453.41 176.17 455.12 178.25 C456.08 179.41 457.03 180.57 458.01 181.77 C462.24 186.34 465.87 188.77 472 190 C479.43 190.15 486.63 190 494 189 C494 186.69 494 184.38 494 182 C496.97 180.91 499.97 179.91 503 179 C503.33 177.35 503.66 175.7 504 174 C505.32 173.34 506.64 172.68 508 172 C508.93 170.8 509.86 169.61 510.81 168.38 C511.86 167.26 512.92 166.15 514 165 C521 165 521 165 525 166 C524.67 167.65 524.34 169.3 524 171 C524.47 172.86 524.95 174.71 525.44 176.62 C529.72 196.84 526.47 215.22 516 233 C507.67 242.67 507.67 242.67 503 245 C502 250 502 250 505 256 C505.66 257.32 506.32 258.64 507 260 C507.66 260.33 508.32 260.66 509 261 C509.33 262.98 509.66 264.96 510 267 C511.24 271.36 512.57 275.7 514 280 C514.66 280.33 515.32 280.66 516 281 C515.34 282.98 514.68 284.96 514 287 C514.99 287 515.98 287 517 287 C517.25 289.39 517.5 291.79 517.75 294.25 C519 302 519 302 523 306 C526.87 307.29 530.63 307.61 534.69 308.06 C536.24 308.24 537.79 308.42 539.39 308.6 C540.58 308.73 541.77 308.86 543 309 C543 309.66 543 310.32 543 311 C543.66 311 544.32 311 545 311 C545 310.34 545 309.68 545 309 C546.32 309.33 547.64 309.66 549 310 C549 310.99 549 311.98 549 313 C552.28 314.58 555.62 316.02 559 317.38 C565.78 320.12 571.91 322.94 578 327 C580.14 328.42 582.29 329.85 584.5 331.31 C586.32 332.53 588.13 333.75 590 335 C590 334.34 590 333.68 590 333 C592.31 333 594.62 333 597 333 C597 333.99 597 334.98 597 336 C596.34 336 595.68 336 595 336 C595 337.32 595 338.64 595 340 C596.32 340.66 597.64 341.32 599 342 C601.48 344.16 603.91 346.37 606.31 348.62 C607.59 349.81 608.86 351 610.18 352.23 C616.62 358.58 622.02 365.2 627 372.75 C628.03 374.31 629.07 375.88 630.13 377.49 C632.51 381.23 634.75 385.08 636.94 388.94 C640.46 394.76 642.89 396.44 649.43 398.17 C651.04 398.5 652.65 398.84 654.31 399.19 C655.94 399.53 657.56 399.88 659.24 400.23 C660.48 400.48 661.72 400.74 663 401 C663.33 400.34 663.66 399.68 664 399 C664.33 399.99 664.66 400.98 665 402 C673.89 403.37 673.89 403.37 678 402 C678 402.66 678 403.32 678 404 C678.97 404.24 678.97 404.24 683.88 405.44 C690 407 690 407 692 408 C692 407.34 692 406.68 692 406 C695 407 695 407 698 410 C703 412 703 412 710 413 C710.66 414.32 711.32 415.64 712 417 C713.28 417.85 714.56 418.69 715.88 419.56 C726.65 426.79 736.04 435.69 742.38 447.06 C743.57 448.69 744.77 450.32 746 452 C750.06 451.69 750.06 451.69 754 450 C762.11 450 767.35 453.57 774 458 C780.18 458.73 786.36 459.28 792.56 459.83 C794.36 460.21 796.15 460.6 798 461 C802.08 469.16 804 473.73 804 483 C805.82 488.45 807.75 492.32 811 497 C811.99 497.33 812.98 497.66 814 498 C814 498.66 814 499.32 814 500 C815.98 500.66 817.96 501.32 820 502 C827.28 505.73 831.12 508.28 834 516 C834.35 517.42 834.7 518.85 835.06 520.31 C837.84 527.04 842.86 530.92 848 536 C854.03 545.48 855.44 555.13 854.44 566.25 C851.8 576.8 847.77 583.43 839 590 C838.67 590.99 838.34 591.98 838 593 C836.02 593.33 834.04 593.66 832 594 C830.74 594.35 829.48 594.7 828.19 595.06 C820.74 596.41 813.56 596.12 806 596 C806 595.01 806 594.02 806 593 C804.35 592.67 802.7 592.34 801 592 C795.19 588.62 795.19 588.62 790 585 C790 584.01 790 583.02 790 582 C788.02 581.67 786.04 581.34 784 581 C783.34 580.67 782.68 580.34 782 580 C781.46 576.22 780.95 572.43 780.62 568.62 C780.42 567.43 780.21 566.23 780 565 C779.01 564.67 778.02 564.34 777 564 C776.57 559.81 776.57 559.81 776.56 554.44 C776.54 552.68 776.52 550.93 776.5 549.12 C777.02 543.8 778.63 540.7 781 536 C780.01 535.01 779.02 534.02 778 533 C778 532.34 778 531.68 778 531 C776.02 531 774.04 531 772 531 C771.34 532.32 770.68 533.64 770 535 C768.68 535 767.36 535 766 535 C766 535.66 766 536.32 766 537 C764.68 537 763.36 537 762 537 C762 537.66 762 538.32 762 539 C759.69 539 757.38 539 755 539 C755.33 541.31 755.66 543.62 756 546 C755.34 546 754.68 546 754 546 C754 547.98 754 549.96 754 552 C745.23 556.39 737.56 555.37 728 554 C721 557 721 557 719 558 C713.11 558.16 707.86 557.84 702 557 C701.67 555.68 701.34 554.36 701 553 C700.34 551.68 699.68 550.36 699 549 C698.01 549 697.02 549 696 549 C696.33 547.02 696.66 545.04 697 543 C696.34 543 695.68 543 695 543 C694.34 544.98 693.68 546.96 693 549 C691.02 549 689.04 549 687 549 C683.13 550.32 679.3 551.75 675.5 553.25 C652.74 562 652.74 562 645 562 C645 562.99 645 563.98 645 565 C638.67 565.51 632.33 566 626 566.5 C624.21 566.64 622.41 566.79 620.57 566.93 C619.7 567 619.7 567 615.31 567.34 C613.72 567.47 612.13 567.6 610.49 567.72 C606.33 567.98 602.16 568 598 568 C598 568.99 598 569.98 598 571 C595.36 571 592.72 571 590 571 C590 570.01 590 569.02 590 568 C587.03 568 584.06 568 581 568 C581 567.34 581 566.68 581 566 C578.69 566 576.38 566 574 566 C574 566.99 574 567.98 574 569 C573.34 569 572.68 569 572 569 C572 568.34 572 567.68 572 567 C571.36 566.94 571.36 566.94 568.12 566.62 C563 566 563 566 557.75 564.88 C553 564 553 564 548 565 C546.02 565 544.04 565 542 565 C542 563.02 542 561.04 542 559 C541.38 558.97 541.38 558.97 538.25 558.81 C531.97 557.84 526.78 555.59 521 553 C521 553.66 521 554.32 521 555 C520.01 554.67 519.02 554.34 518 554 C518 553.34 518 552.68 518 552 C511.47 552.41 506.53 553.38 501 557 C501 558.65 501 560.3 501 562 C500.34 562 499.68 562 499 562 C498.67 562.66 498.34 563.32 498 564 C497.67 562.35 497.34 560.7 497 559 C495.49 559.68 493.98 560.35 492.43 561.05 C465.39 573 465.39 573 454 573 C454 574.32 454 575.64 454 577 C452.31 576.98 450.62 576.96 448.88 576.94 C443 577 443 577 437 578 C436.67 578.66 436.34 579.32 436 580 C435.34 580 434.68 580 434 580 C434 579.34 434 578.68 434 578 C432.62 578.31 431.24 578.62 429.81 578.94 C415.15 581.62 400.29 581.15 385.44 581.12 C383.14 581.13 380.85 581.13 378.49 581.14 C377.4 581.14 377.4 581.14 371.87 581.13 C369.88 581.13 367.89 581.13 365.84 581.13 C361 581 361 581 357 580 C355.68 580.33 354.36 580.66 353 581 C351.02 580.01 349.04 579.02 347 578 C346.67 578.99 346.34 579.98 346 581 C345.34 581 344.68 581 344 581 C343.67 580.34 343.34 579.68 343 579 C340.01 578.62 337 578.29 334 578 C333.34 577.67 332.68 577.34 332 577 C332 576.34 332 575.68 332 575 C316.53 577.03 305.91 590.16 296.38 601.5 C293 606 293 606 292 609 C290.35 609.99 288.7 610.98 287 612 C286.13 613.2 285.27 614.39 284.38 615.62 C274.49 628.43 258.7 637.3 242.69 639.62 C226.72 640.9 211.29 639.11 197.62 630.12 C193.89 626.91 190.41 623.55 187 620 C186.34 619.34 185.68 618.68 185 618 C184.01 618 183.02 618 182 618 C182 615.69 182 613.38 182 611 C181.01 608.69 180.02 606.38 179 604 C178.67 604 178.34 604 178 604 C178.33 599.38 178.66 594.76 179 590 C177.35 590 175.7 590 174 590 C174 589.34 174 588.68 174 588 C175.32 588 176.64 588 178 588 C177.67 586.68 177.34 585.36 177 584 C176.67 584.99 176.34 585.98 176 587 C174.02 587.33 172.04 587.66 170 588 C168.1 588.8 166.21 589.61 164.25 590.44 C152.17 595.39 139.02 596.75 126 596 C125.67 595.01 125.34 594.02 125 593 C124.01 593.66 123.02 594.32 122 595 C120.68 595 119.36 595 118 595 C118 593.68 118 592.36 118 591 C116.89 590.96 115.77 590.92 114.62 590.88 C104.39 588.94 96.37 581.97 90 574 C90 573.34 90 572.68 90 572 C88.68 571.34 87.36 570.68 86 570 C85.67 568.02 85.34 566.04 85 564 C84.34 561.69 83.68 559.38 83 557 C82.38 544.32 84.26 534.86 89 523 C89 522.34 89 521.68 89 521 C89.99 521 90.98 521 92 521 C92.66 519.68 93.32 518.36 94 517 C96.31 514.32 98.65 511.65 101 509 C103 506 103 506 103 504 C104.32 504 105.64 504 107 504 C107.5 503.5 107.5 503.5 110 501 C110 500.01 110 499.02 110 498 C109.24 498.01 109.24 498.01 105.38 498.06 C100 498 100 498 94 497 C94 497.66 94 498.32 94 499 C87 499 87 499 82 498 C82 497.34 82 496.68 82 496 C78.61 495.3 75.21 494.62 71.81 493.94 C69.92 493.55 68.03 493.17 66.08 492.78 C61 492 61 492 56 493 C55.34 492.67 54.68 492.34 54 492 C54 491.01 54 490.02 54 489 C51.69 489 49.38 489 47 489 C46.01 488.34 45.02 487.68 44 487 C40.6 485.44 37.18 483.93 33.75 482.44 C31.91 481.63 30.07 480.83 28.17 480 C23 478 23 478 16 477 C16 476.34 16 475.68 16 475 C15.34 475 14.68 475 14 475 C14 473.68 14 472.36 14 471 C12.35 470.67 10.7 470.34 9 470 C6 469 6 469 4 466 C3.01 465.67 2.02 465.34 1 465 C-0.65 463.02 -2.3 461.04 -4 459 C-5.98 459 -7.96 459 -10 459 C-10 458.01 -10 457.02 -10 456 C-9.34 455.67 -8.68 455.34 -8 455 C-9.2 453.68 -10.39 452.36 -11.62 451 C-16 446 -16 446 -19.31 441.56 C-22 438 -22 438 -25 436 C-25.67 432.24 -26.34 428.48 -26.86 424.7 C-28 420 -28 420 -31.06 413.88 C-36.97 400.06 -36.4 381.84 -31.44 367.62 C-28.42 361.81 -25.45 357.72 -21 353 C-21.17 352.34 -21.17 352.34 -22 349 C-20.68 349.33 -19.36 349.66 -18 350 C-14.31 346.69 -10.65 343.36 -7 340 C-5.68 340 -4.36 340 -3 340 C-3 338.02 -3 336.04 -3 334 C-1.68 333.34 -0.36 332.68 1 332 C8.54 320.99 14.3 309.59 15 296 C15.66 296 16.32 296 17 296 C17 294.68 17 293.36 17 292 C16.34 292 15.68 292 15 292 C15 290.68 15 289.36 15 288 C14.34 287.86 14.34 287.86 11 287.12 C7.9 286.43 4.81 285.67 1.75 284.81 C-2 284 -2 284 -7 285 C-10 282 -10 282 -11 279 C-12.57 278.22 -14.13 277.43 -15.75 276.62 C-21 274 -21 274 -26 269 C-27.32 268.34 -28.64 267.68 -30 267 C-30.66 267.33 -31.32 267.66 -32 268 C-34 264 -34 264 -34 261 C-36.32 257.99 -38.65 254.99 -41 252 C-41.99 250.02 -42.98 248.04 -44 246 C-45.32 245.67 -46.64 245.34 -48 245 C-48 243.02 -48 241.04 -48 239 C-48.66 238.34 -49.32 237.68 -50 237 C-50.39 231.21 -50.65 225.48 -50.81 219.69 C-50.84 218.88 -50.84 218.88 -51.01 214.78 C-51.03 214.01 -51.03 214.01 -51.14 210.07 C-51.19 208.65 -51.23 207.22 -51.28 205.75 C-51 202 -51 202 -48 197 C-47.38 195.7 -46.76 194.4 -46.12 193.06 C-44 189 -44 189 -39 183 C-38.83 182.67 -38.83 182.67 -38 181 C-30 181 -30 181 -26 182 C-26 176.39 -26 170.78 -26 165 C-25.01 165 -24.02 165 -23 165 C-23 164.34 -23 163.68 -23 163 C-23.66 163 -24.32 163 -25 163 C-25 161.02 -25 159.04 -25 157 C-23.68 157 -22.36 157 -21 157 C-19.97 154.01 -18.98 151.01 -18 148 C-15.19 143.88 -15.19 143.88 -12 140 C-11.03 138.76 -10.06 137.52 -9.06 136.25 C-5.94 132.94 -2.98 131.15 1 129 C1 128.34 1 127.68 1 127 C3.64 127.33 6.28 127.66 9 128 C9 123.71 9 119.42 9 115 C8.01 115 7.02 115 6 115 C5.88 113.49 5.75 111.99 5.62 110.44 C5 105 5 105 3 98 C3 96.68 3 95.36 3 94 C2.01 94 1.02 94 0 94 C0 92.02 0 90.04 0 88 C-0.99 87.67 -1.98 87.34 -3 87 C-2.34 87 -1.68 87 -1 87 C-1 83.04 -1 79.08 -1 75 C-2.32 74.67 -3.64 74.34 -5 74 C-5 73.34 -5 72.68 -5 72 C-4.34 72 -3.68 72 -3 72 C-3 71.01 -3 70.02 -3 69 C-4.65 69 -6.3 69 -8 69 C-8.33 68.67 -8.33 68.67 -10 67 C-9.98 65.06 -9.96 63.12 -9.94 61.12 C-10.02 51.4 -12.19 43.89 -16 35 C-18.43 24.27 -19.58 14.27 -15 4 C-9.15 -0.68 -7.25 -0.72 0 0 Z M183 614 C183 614.66 183 615.32 183 616 C183.66 615.67 184.32 615.34 185 615 C184.34 614.67 183.68 614.34 183 614 Z " fill="#AB59AE" transform="translate(498,139)"/>
<path d="M0 0 C21.39 3.57 34.85 25.74 47 42 C47.95 43.25 48.91 44.5 49.89 45.79 C59.72 58.89 68.92 72.31 74 88 C74.46 89.38 74.93 90.76 75.4 92.18 C80 107.3 80.23 122.41 78 138 C77.75 144.5 77.77 151 77.75 157.5 C77.73 159.25 77.71 161 77.69 162.8 C77.64 178.12 79.58 190.91 86 205 C86.6 206.53 87.2 208.05 87.81 209.62 C97.17 228.34 115.9 240.04 135 247 C148 250.95 148 250.95 154.62 251.12 C158 252 158 252 160.75 256.19 C167.43 273.45 170.42 289.06 165 307 C163.41 310.37 161.76 313.71 160 317 C159.34 318.65 158.68 320.3 158 322 C156.35 323.32 154.7 324.64 153 326 C152.03 327.15 151.06 328.31 150.06 329.5 C147 333 147 333 141 337 C139.02 337 137.04 337 135 337 C134.67 338.65 134.34 340.3 134 342 C135.65 342.66 137.3 343.32 139 344 C141.19 345.18 143.37 346.35 145.62 347.56 C151.82 350.71 156.97 351.91 164 352 C164.03 353.18 164.05 354.37 164.08 355.59 C164.58 369.52 167.07 378.94 176 390 C184.61 397.01 191.99 401.43 203 403 C207.68 402.04 212.34 401.04 217 400 C219.31 400 221.62 400 224 400 C223 403 223 403 219.88 404.75 C212.18 409.22 207.85 415.08 204 423 C202.12 432.42 203.18 440.24 208.08 448.51 C211.52 452.62 214.73 454.47 219.5 456.88 C220.97 457.64 222.45 458.4 223.97 459.18 C232.18 462.89 240.89 463.07 249.56 460.81 C253 459 253 459 256 454 C254.6 453.28 253.19 452.56 251.75 451.81 C247 449 247 449 243 444 C242.06 439.44 242.06 439.44 243 435 C247.5 433 247.5 433 254 431 C268.11 423.94 278.97 415.17 290 404 C290.33 404 290.66 404 291 404 C291.27 405.73 291.54 407.46 291.81 409.25 C292.57 413.53 293.45 417.79 294.5 422 C296 428 296 428 296.69 433.69 C299.51 447.28 306.33 458.35 315 469 C315.89 470.18 316.77 471.35 317.69 472.56 C339.75 495.46 371.76 508.26 403.26 509.18 C430.29 509.45 430.29 509.45 443 504 C448.76 502.24 454.21 500.97 460.19 500.19 C471.61 498.2 481.24 494.21 491 488 C493.31 487.67 495.62 487.34 498 487 C498 487.66 498 488.32 498 489 C494.03 491.71 490.03 494.38 486 497 C485 498 485 498 484.75 502.62 C485 508 485 508 488 515 C484.06 516.59 480.13 518.17 476.19 519.75 C473.99 520.63 471.8 521.51 469.54 522.42 C459.2 526.5 449.26 529.81 438.38 532.19 C436.07 532.7 433.77 533.21 431.4 533.73 C422.11 535.57 413.47 536.11 404 536 C404 536.66 404 537.32 404 538 C372.8 538.63 344.47 536.25 316 523 C309 520 309 520 304 520 C300.99 521.55 298.04 523.22 295.12 524.94 C274.06 536.82 251.66 543.61 228 548 C225.92 548.39 223.83 548.78 221.69 549.19 C197.8 552.6 173.16 551.71 149.19 549.62 C148.46 549.56 148.46 549.56 144.77 549.24 C134.53 548.27 134.53 548.27 130 546 C135.96 540.04 144.92 538.59 153 537 C152.67 536.01 152.34 535.02 152 534 C145.48 530.74 137.11 532.97 130.56 534.94 C109.25 544.89 92.64 560.71 78.38 579.19 C67.62 593.05 56.38 601.63 40 608 C38.35 608.66 36.7 609.32 35 610 C20.94 610.97 20.94 610.97 15 608 C10.99 599.53 10.3 592.31 11 583 C12.32 581.02 13.64 579.04 15 577 C18 572 18 572 19 568 C14.81 568.88 14.81 568.88 10 571 C3.06 582.42 3.13 592.91 5 606 C-2.56 604.49 -6.62 600.77 -11.31 594.75 C-17 584.69 -18.75 574.47 -17 563 C-9.1 540.93 6.12 523.06 21.62 505.88 C24.68 502.36 26.8 499.08 29 495 C30.32 493.35 31.64 491.7 33 490 C33 487.36 33 484.72 33 482 C26 483 26 483 19.94 485.06 C6.47 488.82 -4.23 486.57 -17.06 482.25 C-41.12 474.26 -65.5 471.67 -90.62 469.22 C-130.03 465.35 -170.64 459.18 -202 433 C-202.82 432.34 -202.82 432.34 -207 429 C-224.67 407.48 -231.33 383.6 -230 356 C-226.67 340.49 -215.13 332.19 -203 323 C-185.12 308.7 -181.79 286.36 -179 265 C-176.96 262.96 -172.33 263.76 -169.69 263.69 C-134.95 261.93 -99.52 247.95 -74 224 C-71.63 221.37 -69.3 218.7 -67 216 C-66.25 215.19 -66.25 215.19 -62.44 211.06 C-58.48 206.55 -55.27 202.01 -52 197 C-50.68 195.68 -49.36 194.36 -48 193 C-46.39 190.23 -44.85 187.41 -43.38 184.56 C-42.6 183.08 -41.82 181.6 -41.02 180.07 C-37.7 173.38 -36.26 167.33 -35 160 C-34.34 156.67 -33.68 153.33 -33 150 C-32.01 150 -31.02 150 -30 150 C-28.68 151.32 -27.36 152.64 -26 154 C-24.02 154.33 -22.04 154.66 -20 155 C-21.03 153.82 -22.06 152.65 -23.12 151.44 C-27.76 144.93 -30.25 138.44 -33 131 C-33.71 129.46 -34.42 127.92 -35.14 126.34 C-41.77 107.27 -36.75 84.08 -29 66 C-28.74 64.83 -28.49 63.67 -28.23 62.47 C-26.63 56.66 -24.11 51.56 -21.5 46.12 C-16.14 34.73 -11.53 23.2 -7.25 11.36 C-5 6 -5 6 0 0 Z " fill="#FAF3F8" transform="translate(705,159)"/>
<path d="M0 0 C7 0 7 0 11 1 C10.67 2.65 10.34 4.3 10 6 C10.47 7.86 10.95 9.71 11.44 11.62 C15.72 31.84 12.47 50.22 2 68 C-6.33 77.67 -6.33 77.67 -11 80 C-12 85 -12 85 -9 91 C-8.34 92.32 -7.68 93.64 -7 95 C-6.34 95.33 -5.68 95.66 -5 96 C-4.67 97.98 -4.34 99.96 -4 102 C-2.76 106.36 -1.43 110.7 0 115 C0.66 115.33 1.32 115.66 2 116 C1.34 117.98 0.68 119.96 0 122 C0.99 122 1.98 122 3 122 C3.25 124.39 3.5 126.78 3.75 129.25 C5 137 5 137 9 141 C12.87 142.29 16.63 142.61 20.69 143.06 C22.24 143.24 23.79 143.42 25.39 143.6 C26.58 143.73 27.77 143.86 29 144 C29 144.66 29 145.32 29 146 C29.66 146 30.32 146 31 146 C31 145.34 31 144.68 31 144 C32.32 144.33 33.64 144.66 35 145 C35 145.99 35 146.98 35 148 C38.28 149.58 41.62 151.02 45 152.38 C51.78 155.12 57.91 157.94 64 162 C66.14 163.42 68.29 164.85 70.5 166.31 C72.32 167.53 74.13 168.75 76 170 C76 169.34 76 168.68 76 168 C78.31 168 80.62 168 83 168 C83 168.99 83 169.98 83 171 C82.34 171 81.68 171 81 171 C81 172.32 81 173.64 81 175 C82.32 175.66 83.64 176.32 85 177 C87.48 179.16 89.91 181.37 92.31 183.62 C93.59 184.81 94.86 186 96.18 187.23 C102.62 193.58 108.02 200.2 113 207.75 C114.03 209.31 115.07 210.88 116.13 212.49 C118.51 216.23 120.75 220.08 122.94 223.94 C126.46 229.76 128.89 231.44 135.43 233.17 C137.04 233.5 138.65 233.84 140.31 234.19 C141.94 234.53 143.56 234.88 145.24 235.23 C146.48 235.48 147.72 235.74 149 236 C149.33 235.34 149.66 234.68 150 234 C150.33 234.99 150.66 235.98 151 237 C159.89 238.37 159.89 238.37 164 237 C164 237.66 164 238.32 164 239 C165.94 239.47 167.88 239.95 169.88 240.44 C176 242 176 242 178 243 C178 242.34 178 241.68 178 241 C181 242 181 242 184 245 C189 247 189 247 196 248 C196.66 249.32 197.32 250.64 198 252 C199.28 252.85 200.56 253.69 201.88 254.56 C212.65 261.79 222.04 270.69 228.38 282.06 C229.57 283.69 230.77 285.32 232 287 C236.06 286.69 236.06 286.69 240 285 C248.11 285 253.35 288.57 260 293 C266.18 293.73 272.36 294.28 278.56 294.83 C280.36 295.21 282.15 295.6 284 296 C288.08 304.16 290 308.73 290 318 C291.82 323.45 293.75 327.32 297 332 C297.99 332.33 298.98 332.66 300 333 C300 333.66 300 334.32 300 335 C301.98 335.66 303.96 336.32 306 337 C313.28 340.73 317.12 343.28 320 351 C320.35 352.42 320.7 353.85 321.06 355.31 C323.84 362.04 328.86 365.92 334 371 C340.03 380.48 341.44 390.13 340.44 401.25 C337.8 411.8 333.77 418.43 325 425 C324.67 425.99 324.34 426.98 324 428 C322.02 428.33 320.04 428.66 318 429 C316.74 429.35 315.48 429.7 314.19 430.06 C306.74 431.41 299.56 431.12 292 431 C292 430.01 292 429.02 292 428 C290.35 427.67 288.7 427.34 287 427 C281.19 423.63 281.19 423.63 276 420 C276 419.01 276 418.02 276 417 C274.02 416.67 272.04 416.34 270 416 C269.34 415.67 268.68 415.34 268 415 C267.46 411.22 266.95 407.43 266.62 403.62 C266.42 402.43 266.21 401.23 266 400 C265.01 399.67 264.02 399.34 263 399 C262.57 394.81 262.57 394.81 262.56 389.44 C262.54 387.68 262.52 385.93 262.5 384.12 C263.02 378.8 264.63 375.7 267 371 C266.01 370.01 265.02 369.02 264 368 C264 367.34 264 366.68 264 366 C262.02 366 260.04 366 258 366 C257.34 367.32 256.68 368.64 256 370 C254.68 370 253.36 370 252 370 C252 370.66 252 371.32 252 372 C250.68 372 249.36 372 248 372 C248 372.66 248 373.32 248 374 C245.69 374 243.38 374 241 374 C241.33 376.31 241.66 378.62 242 381 C241.34 381 240.68 381 240 381 C240 382.98 240 384.96 240 387 C231.23 391.39 223.56 390.37 214 389 C207 392 207 392 205 393 C199.11 393.16 193.86 392.84 188 392 C187.67 390.68 187.34 389.36 187 388 C186.34 386.68 185.68 385.36 185 384 C184.01 384 183.02 384 182 384 C182.33 382.02 182.66 380.04 183 378 C182.34 378 181.68 378 181 378 C180.34 379.98 179.68 381.96 179 384 C177.02 384 175.04 384 173 384 C169.13 385.32 165.3 386.75 161.5 388.25 C138.74 397 138.74 397 131 397 C131 397.99 131 398.98 131 400 C124.67 400.51 118.33 401 112 401.5 C110.21 401.64 108.41 401.79 106.57 401.93 C104.83 402.07 103.1 402.2 101.31 402.34 C99.72 402.47 98.13 402.6 96.49 402.72 C92.33 402.98 88.16 403 84 403 C84 403.99 84 404.98 84 406 C81.36 406 78.72 406 76 406 C76 405.01 76 404.02 76 403 C73.03 403 70.06 403 67 403 C67 402.34 67 401.68 67 401 C64.69 401 62.38 401 60 401 C60 401.99 60 402.98 60 404 C59.34 404 58.68 404 58 404 C58 403.34 58 402.68 58 402 C56.72 401.88 55.44 401.75 54.12 401.62 C49 401 49 401 43.75 399.88 C39 399 39 399 34 400 C32.02 400 30.04 400 28 400 C28 398.02 28 396.04 28 394 C26.76 393.94 25.53 393.88 24.25 393.81 C17.97 392.84 12.78 390.59 7 388 C7 388.66 7 389.32 7 390 C6.01 389.67 5.02 389.34 4 389 C4 388.34 4 387.68 4 387 C-2.53 387.41 -7.47 388.38 -13 392 C-13 393.65 -13 395.3 -13 397 C-13.66 397 -14.32 397 -15 397 C-15.33 397.66 -15.66 398.32 -16 399 C-16.33 397.35 -16.66 395.7 -17 394 C-18.51 394.68 -20.02 395.35 -21.57 396.05 C-48.61 408 -48.61 408 -60 408 C-60 409.32 -60 410.64 -60 412 C-61.69 411.98 -63.38 411.96 -65.12 411.94 C-71 412 -71 412 -77 413 C-77.33 413.66 -77.66 414.32 -78 415 C-78.66 415 -79.32 415 -80 415 C-80 414.34 -80 413.68 -80 413 C-81.38 413.31 -82.76 413.62 -84.19 413.94 C-98.85 416.62 -113.71 416.15 -128.56 416.12 C-130.86 416.13 -133.15 416.13 -135.51 416.14 C-136.6 416.14 -136.6 416.14 -142.13 416.13 C-143.12 416.13 -143.12 416.13 -148.16 416.13 C-153 416 -153 416 -157 415 C-158.32 415.33 -159.64 415.66 -161 416 C-161.99 415.5 -161.99 415.5 -167 413 C-167.33 413.99 -167.66 414.98 -168 416 C-168.66 416 -169.32 416 -170 416 C-170.33 415.34 -170.66 414.68 -171 414 C-173.99 413.62 -177 413.29 -180 413 C-180.66 412.67 -181.32 412.34 -182 412 C-182 411.34 -182 410.68 -182 410 C-197.47 412.03 -208.09 425.16 -217.62 436.5 C-221 441 -221 441 -222 444 C-222.83 444.5 -222.83 444.5 -227 447 C-227.87 448.2 -228.73 449.39 -229.62 450.62 C-236.27 459.24 -243.36 464.73 -254 467 C-255.5 467.35 -257 467.7 -258.55 468.05 C-268.93 470.34 -278.38 471.42 -289 471 C-288.67 470.34 -288.67 470.34 -287 467 C-282.01 466.26 -277.01 465.59 -272 465 C-271.67 464.34 -271.34 463.68 -271 463 C-270.11 462.71 -270.11 462.71 -265.62 461.25 C-245.23 454.32 -233.4 439.44 -220.38 423.25 C-207.72 408.07 -189.9 391.48 -170 387 C-157.83 386.45 -157.83 386.45 -154 389 C-154 389.99 -154 390.98 -154 392 C-156.96 393.1 -159.98 394.08 -163 395 C-167.34 396.65 -171.67 398.32 -176 400 C-170.74 403.51 -164.06 403.09 -157.88 403.62 C-156.37 403.76 -154.86 403.89 -153.3 404.02 C-102.85 408.05 -50.97 402.87 -7 375.94 C-2.16 373.59 -0.22 373.95 5 375 C7.67 376.15 10.29 377.41 12.88 378.75 C35.01 389.5 59.39 391.76 83.69 392.56 C86.19 392.65 88.69 392.73 91.26 392.82 C93.16 392.88 95.05 392.94 97 393 C97 392.34 97 391.68 97 391 C97.6 390.96 97.6 390.96 100.64 390.77 C128.82 388.6 154.44 380.81 180 369 C179.51 368.01 179.51 368.01 177 363 C176.5 357.88 176.5 357.88 177 353 C188.25 344 188.25 344 191 344 C191 343.34 191 342.68 191 342 C189.68 341.67 188.36 341.34 187 341 C187.33 339.35 187.66 337.7 188 336 C187.38 336.28 187.38 336.28 184.25 337.69 C166.41 345.55 149.2 352.14 129.73 354.39 C125 355 125 355 120.52 356.06 C101.83 359.95 74.61 357.96 58 348 C57.34 346.02 56.68 344.04 56 342 C52 339.29 52 339.29 47 336.62 C25.71 324.82 12.77 309.84 4 287 C0.68 275.06 0.54 266.01 3 254 C3.16 251.67 3.33 249.34 3.5 246.94 C3.66 244.98 3.83 243.02 4 241 C4.66 240.67 5.32 240.34 6 240 C9.01 228.72 11.33 217.67 12 206 C10.35 205.34 8.7 204.68 7 204 C3 200 3 200 2.56 195.5 C3.27 186.65 5.51 179.14 9 171 C9 168.36 9 165.72 9 163 C9.99 163 10.98 163 12 163 C31.77 182.77 33.23 208.51 33.5 234.88 C34.15 297.41 34.15 297.41 56.93 321.1 C65.1 328.81 73.73 336.75 85 339 C85 339.66 85 340.32 85 341 C88.33 341.68 91.67 342.34 95 343 C97.41 343.52 99.83 344.03 102.31 344.56 C112.15 346.43 122.02 346.72 132 347 C132 345.68 132 344.36 132 343 C134.97 342.67 137.94 342.34 141 342 C140.3 341.95 140.3 341.95 136.79 341.7 C114.9 339.97 93.89 335.78 75 324 C73.35 322.02 71.7 320.04 70 318 C65.76 314.19 61.43 310.54 57 306.94 C45.78 295.86 41.4 283.65 40.67 267.86 C40.7 265.51 40.72 263.17 40.75 260.75 C40.77 258.37 40.78 256 40.8 253.55 C41 248 41 248 42 247 C42.18 241.41 42.28 235.84 42.31 230.25 C42.33 229.47 42.33 229.47 42.4 225.54 C42.45 215.91 41.33 208.15 38 199 C37.38 196.86 36.76 194.71 36.12 192.5 C33.91 185.71 31.05 179.45 28 173 C28 172.34 28 171.68 28 171 C27.01 170.67 26.02 170.34 25 170 C22.3 166.7 19.63 163.36 17 160 C12.31 155.31 8.22 154.07 2 152 C1.71 154.21 1.42 156.41 1.12 158.69 C-1.83 180.76 -1.83 180.76 -4 190 C-4.66 190.33 -5.32 190.66 -6 191 C-6.08 194.33 -6.08 197.67 -6 201 C-15.9 200.64 -21.63 195.14 -29 189 C-38.42 175.12 -43.25 159.57 -40.25 142.81 C-40.04 142.02 -40.04 142.02 -39 138 C-38.31 135.27 -37.62 132.54 -36.94 129.81 C-36.6 128.48 -36.25 127.14 -35.9 125.77 C-33.92 117.49 -33.83 109.67 -33.81 101.19 C-33.8 98.56 -33.78 95.94 -33.77 93.23 C-33.85 91.17 -33.92 89.12 -34 87 C-34.66 86.67 -35.32 86.34 -36 86 C-36.1 83.99 -36.21 81.98 -36.31 79.91 C-37.05 71.38 -39.12 64.49 -42 56.5 C-46.9 42.58 -46.9 42.58 -48 36 C-47.17 35.83 -47.17 35.83 -43 35 C-43.33 34.67 -43.66 34.34 -44 34 C-44 32.35 -44 30.7 -44 29 C-46.64 28.34 -49.28 27.68 -52 27 C-51.67 26.34 -51.34 25.68 -51 25 C-47.5 24.88 -44 24.88 -40.5 24.94 C-33.55 25.04 -26.89 24.92 -20 24 C-20 21.69 -20 19.38 -20 17 C-17.03 15.91 -14.03 14.91 -11 14 C-10.67 12.35 -10.34 10.7 -10 9 C-8.68 8.34 -7.36 7.68 -6 7 C-5.07 5.8 -4.14 4.61 -3.19 3.38 C-2.14 2.26 -1.08 1.15 0 0 Z " fill="#C66BAB" transform="translate(1012,304)"/>
<path d="M0 0 C9.75 3.25 15.43 8.28 22 16 C26.86 20.57 31.28 24.57 37 28 C42.02 33.4 46.49 39.17 51 45 C51.71 45.84 51.71 45.84 55.31 50.06 C67.47 65.46 77.42 82.54 81 102 C81.66 102 82.32 102 83 102 C83.33 100.68 83.66 99.36 84 98 C85.32 98.33 86.64 98.66 88 99 C91.67 108.28 92.1 116.11 92 126 C92.99 126.33 93.98 126.66 95 127 C96.37 145.14 95.83 163.94 89 181 C86.23 197.63 89.85 211.53 98 226 C105.71 233.71 111.35 238.34 122 241 C121.67 237.7 121.34 234.4 121 231 C121.99 230.67 122.98 230.34 124 230 C124.59 226.16 124.59 226.16 124.94 221.06 C125.78 211.07 127.64 201.74 130 192 C138.81 193.76 143.44 195.62 148.81 203 C153.93 209.93 153.93 209.93 157 213 C169.81 237.41 172.19 259.89 171 287 C170.67 287.33 170.34 287.66 170 288 C169.84 292.25 169.78 296.5 169.75 300.75 C169.72 303.1 169.7 305.44 169.67 307.86 C170.33 322.08 174.11 332.88 183 344 C185.64 346.37 188.31 348.69 191 351 C196.13 355.57 201.14 360.14 206 365 C221.43 373.23 238.53 378.51 255.97 379.85 C256.79 379.92 256.79 379.92 260.94 380.24 C262.63 380.37 264.32 380.49 266.06 380.62 C267.79 380.76 269.51 380.89 271.29 381.03 C275.52 381.36 279.76 381.68 284 382 C284 382.33 284 382.66 284 383 C276.08 383 268.16 383 260 383 C260 384.32 260 385.64 260 387 C243.62 387.59 228.6 386.2 213 381 C213 380.34 213 379.68 213 379 C210.69 378.67 208.38 378.34 206 378 C185.78 367.13 171.95 349.4 164.19 328 C160.33 308.52 160.65 288.52 160.52 268.75 C160.23 245.65 156.54 226.18 143 207 C141.35 205.68 139.7 204.36 138 203 C138 205.64 138 208.28 138 211 C136.73 214.36 135.39 217.69 134 221 C132.21 227.45 131.46 233.31 132 240 C136 244 136 244 140 246 C141.14 257.27 139.11 270.79 134 281 C133.34 281 132.68 281 132 281 C132.04 282.94 132.08 284.88 132.12 286.88 C132.02 293 131.24 298.06 130 304 C128.46 322.97 137.59 341.39 149 356 C158.82 367.05 171.07 374.1 184 381 C186 383 186 383 188 389 C210.96 396.95 235.43 398.5 259.09 393.07 C264 392 264 392 270.27 391.14 C277.27 389.95 283.5 388.05 290.19 385.69 C292.37 384.93 294.55 384.17 296.79 383.39 C302.41 381.23 307.63 378.7 313 376 C313.99 376 314.98 376 316 376 C316 377.65 316 379.3 316 381 C312.5 383.5 312.5 383.5 308 386 C306.82 386.83 305.65 387.65 304.44 388.5 C295.07 393.78 285.57 395.97 275 397 C267.23 399.02 259.61 401.46 252 404 C218.99 409.58 183.99 401.74 156.31 383.19 C154.56 381.81 152.81 380.42 151 379 C149.94 378.18 148.88 377.36 147.79 376.51 C131.08 363.07 118.5 344.31 115.5 322.81 C114.36 315.1 112.87 307.57 111 300 C110.14 300.92 109.28 301.84 108.39 302.78 C96.54 315.08 81.29 327.12 64 330 C64.39 336.59 64.72 338.65 69 344 C71.95 345.75 74.95 347.43 78 349 C75 354 75 354 70 357 C57.24 360.19 47.03 356.03 35.81 350.34 C29.17 346.26 26.05 341.05 23.56 333.81 C22.19 324.51 23.57 317.76 28.62 309.94 C38 299 38 299 44 297 C44.33 296.34 44.66 295.68 45 295 C43.47 295.32 41.93 295.65 40.36 295.98 C38.32 296.38 36.28 296.78 34.19 297.19 C32.18 297.59 30.17 298 28.11 298.42 C15.38 299.63 7.68 294.43 -2 287 C-9.17 279.96 -14.87 270.89 -15.1 260.67 C-15.09 259.86 -15.09 259.86 -15.06 255.75 C-15.05 254.12 -15.04 252.48 -15.04 250.8 C-15.02 249.54 -15.01 248.29 -15 247 C-16.49 247.16 -17.97 247.33 -19.5 247.5 C-29.14 246.76 -37.02 242.32 -45 237 C-44.67 235.35 -44.34 233.7 -44 232 C-43.41 231.86 -43.41 231.86 -40.44 231.12 C-32.41 229.09 -28.16 223.19 -23 217 C-22.34 216.67 -21.68 216.34 -21 216 C-10.94 192.52 -10.7 176.28 -19 152 C-19.33 149.69 -19.66 147.38 -20 145 C-13.07 145 -6.14 145 1 145 C1 144.34 1 143.68 1 143 C-0.32 142.79 -1.64 142.59 -3 142.38 C-11.88 139.93 -17.12 134.65 -22 127 C-26.84 114.98 -29.36 105.59 -24.12 93.19 C-20.65 86.8 -16.59 80.87 -12.5 74.87 C2.96 50.93 3.56 27.59 0 0 Z " fill="#9356A9" transform="translate(884,264)"/>
<path d="M0 0 C7.19 4.79 12.71 10.38 18.38 16.88 C21.29 20.2 24.37 23.37 27.5 26.5 C30.47 29.47 33.4 32.47 36.15 35.64 C40.93 41.06 46.01 46.15 51.12 51.25 C52.1 52.23 53.08 53.21 54.08 54.22 C58.25 58.38 62.39 62.31 67 66 C68.38 67.71 69.76 69.42 71.19 71.19 C76 77 76 77 81.56 82 C83.03 83.32 84.49 84.64 86 86 C86 86.99 86 87.98 86 89 C87.65 89.66 89.3 90.32 91 91 C103.43 101.29 103.43 101.29 105 106 C105.5 104.96 105.99 103.92 106.5 102.85 C115.23 84.93 124.85 73.26 142 63 C142.99 63 143.98 63 145 63 C145.66 61.68 146.32 60.36 147 59 C153.05 56.98 157.18 56.76 163.5 56.81 C165.33 56.82 167.15 56.83 169.03 56.83 C174 57 174 57 180 58 C178.62 65.25 176.3 71.74 173.5 78.56 C172.71 80.52 171.91 82.48 171.09 84.5 C170.4 85.99 169.71 87.47 169 89 C168.34 89 167.68 89 167 89 C163.45 98.66 162.82 107.08 162.81 117.31 C162.8 118.7 162.79 120.08 162.78 121.5 C162.76 132.37 163.04 143.33 166.62 153.69 C171.52 169.03 164.08 185.28 157.61 199.12 C154.35 205.34 150.89 211.16 147 217 C146.01 218.65 145.02 220.3 144 222 C142.68 222.99 141.36 223.98 140 225 C136 229 136 229 132.75 232.81 C127.65 238.5 122.55 243.07 116 247 C115.67 247.66 115.34 248.32 115 249 C114.17 249.33 114.17 249.33 110 251 C109.17 251.66 109.17 251.66 105 255 C72.33 272.3 36.48 280.06 0 270 C-1.32 269.67 -2.64 269.34 -4 269 C-4 268.34 -4 267.68 -4 267 C-5.98 266.34 -7.96 265.68 -10 265 C-24.13 255.69 -34.88 243.84 -39.25 227.25 C-40.99 215.05 -40.54 204.09 -35 193 C-33.72 193.87 -32.44 194.73 -31.12 195.62 C-26.16 198.89 -21.12 201.97 -16 205 C-16 204.34 -16 203.68 -16 203 C-12.67 203 -9.33 203 -6 203 C-11.28 199.99 -16.4 197.4 -22 195 C-28.04 187.76 -27.45 185.73 -26.81 176.62 C-26.74 175.54 -26.74 175.54 -26.39 170.04 C-26.26 168.38 -26.13 166.71 -26 165 C-25.01 165 -24.02 165 -23 165 C-23 164.34 -23 163.68 -23 163 C-23.66 163 -24.32 163 -25 163 C-25 161.02 -25 159.04 -25 157 C-23.68 157 -22.36 157 -21 157 C-19.97 154.01 -18.98 151.01 -18 148 C-15.19 143.88 -15.19 143.88 -12 140 C-11.03 138.76 -10.06 137.52 -9.06 136.25 C-5.94 132.94 -2.98 131.15 1 129 C1 128.34 1 127.68 1 127 C3.64 127.33 6.28 127.66 9 128 C9 123.71 9 119.42 9 115 C8.01 115 7.02 115 6 115 C5.88 113.49 5.75 111.99 5.62 110.44 C5 105 5 105 3 98 C3 96.68 3 95.36 3 94 C2.01 94 1.02 94 0 94 C0 92.02 0 90.04 0 88 C-0.99 87.67 -1.98 87.34 -3 87 C-2.34 87 -1.68 87 -1 87 C-1 83.04 -1 79.08 -1 75 C-2.32 74.67 -3.64 74.34 -5 74 C-5 73.34 -5 72.68 -5 72 C-4.34 72 -3.68 72 -3 72 C-3 71.01 -3 70.02 -3 69 C-4.65 69 -6.3 69 -8 69 C-8.66 68.34 -9.32 67.68 -10 67 C-9.98 65.06 -9.96 63.12 -9.94 61.12 C-10.02 51.4 -12.19 43.89 -16 35 C-18.43 24.27 -19.58 14.27 -15 4 C-9.15 -0.68 -7.25 -0.72 0 0 Z " fill="#CAB9F7" transform="translate(498,139)"/>
<path d="M0 0 C9.75 3.25 15.43 8.28 22 16 C26.86 20.57 31.28 24.57 37 28 C42.02 33.4 46.49 39.17 51 45 C51.71 45.84 51.71 45.84 55.31 50.06 C78.19 79.04 86.47 111.21 86.69 147.69 C86.71 148.6 86.71 148.6 86.85 153.24 C86.94 165.9 84.54 174.23 78 185 C76.99 186.92 75.98 188.83 74.95 190.8 C69.48 200.63 64.4 208.52 56 216 C54.35 217.98 52.7 219.96 51 222 C48.79 223.83 46.54 225.59 44.25 227.31 C27.07 240.58 27.07 240.58 24 249 C23 263 24.95 269.14 34 280 C37.62 282.47 40.84 284.61 45 286 C45 286.66 45 287.32 45 288 C33.46 291.3 23.07 291.96 12.12 286.69 C10.43 285.47 8.74 284.25 7 283 C6.17 282.5 6.17 282.5 2 280 C-6.34 268.99 -8.2 259.58 -7 246 C-3 242.75 -3 242.75 1 241 C1 239.68 1 238.36 1 237 C-1.31 237 -3.62 237 -6 237 C-6.33 237.33 -6.33 237.33 -8 239 C-23.12 239.71 -23.12 239.71 -30 236 C-30 235.01 -30 234.02 -30 233 C-29.01 232.34 -29.01 232.34 -24 229 C-20.62 225.44 -20.62 225.44 -17 221 C-15.64 219.37 -14.28 217.74 -12.88 216.06 C-3.6 201.54 -0.67 183.15 -4.19 166.31 C-6.29 160.14 -8.63 154.08 -11 148 C-11 147.34 -11 146.68 -11 146 C-7.04 145.67 -3.08 145.34 1 145 C1 144.34 1 143.68 1 143 C-0.32 142.79 -1.64 142.59 -3 142.38 C-11.88 139.93 -17.12 134.65 -22 127 C-26.84 114.98 -29.36 105.59 -24.12 93.19 C-20.65 86.8 -16.59 80.87 -12.5 74.87 C2.96 50.93 3.56 27.59 0 0 Z " fill="#BFCEFA" transform="translate(884,264)"/>
<path d="M0 0 C7.54 1.08 13.87 3.37 21 6 C22.98 6.66 24.96 7.32 27 8 C28 9 28 9 28 14 C28.83 14.17 28.83 14.17 33 15 C34.98 16.65 36.96 18.3 39 20 C38.67 21.98 38.34 23.96 38 26 C39.32 26.99 40.64 27.98 42 29 C48.16 39.39 52.16 49.05 54 61 C54.66 61 55.32 61 56 61 C56.99 63.31 57.98 65.62 59 68 C59.66 68.33 60.32 68.66 61 69 C61.61 74.32 61.75 79.65 62 85 C62.66 85 63.32 85 64 85 C64.9 87.72 65.69 90.48 66.44 93.25 C67.83 98.45 68.75 101.66 72 106 C72.47 107.3 72.95 108.6 73.44 109.94 C75.36 114.93 78.24 118.24 82 122 C82.99 123.65 83.98 125.3 85 127 C88.27 129.42 91.61 131.75 95 134 C96.98 135.32 98.96 136.64 101 138 C102.32 138.33 103.64 138.66 105 139 C105.66 140.32 106.32 141.64 107 143 C115.13 147.95 123.79 151.63 133 154 C139 156 139 156 140 158 C143.69 158.95 147.4 159.78 151.12 160.56 C152.15 160.78 152.15 160.78 157.32 161.88 C165.06 163.41 172.58 164.2 180.44 164.56 C182.23 164.65 184.02 164.73 185.87 164.82 C187.23 164.88 188.6 164.94 190 165 C190.33 167.31 190.66 169.62 191 172 C186.74 174.88 186.74 174.88 180.88 177.56 C178.84 178.51 176.8 179.45 174.7 180.43 C172.82 181.28 170.94 182.13 169 183 C166.9 184.05 164.79 185.1 162.62 186.19 C147.3 192.69 132.2 197.57 115.63 199.43 C111 200 111 200 106.53 201.05 C87.84 204.96 60.61 202.97 44 193 C43.34 191.02 42.68 189.04 42 187 C38 184.29 38 184.29 33 181.62 C11.71 169.82 -1.23 154.84 -10 132 C-13.32 120.06 -13.46 111.01 -11 99 C-10.84 96.67 -10.67 94.34 -10.5 91.94 C-10.42 90.96 -10.42 90.96 -10 86 C-9.67 85.84 -9.67 85.84 -8 85 C-4.99 73.72 -2.67 62.67 -2 51 C-3.65 50.34 -5.3 49.68 -7 49 C-11 45 -11 45 -11.44 40.5 C-10.73 31.65 -8.49 24.14 -5 16 C-5 13.36 -5 10.72 -5 8 C-4.01 8 -3.02 8 -2 8 C17.77 27.77 19.23 53.51 19.5 79.88 C20.15 142.41 20.15 142.41 42.93 166.1 C51.1 173.81 59.73 181.75 71 184 C71 184.66 71 185.32 71 186 C74.33 186.68 77.67 187.34 81 188 C83.41 188.52 85.83 189.03 88.31 189.56 C98.15 191.43 108.02 191.72 118 192 C118 190.68 118 189.36 118 188 C120.97 187.67 123.94 187.34 127 187 C126.3 186.95 126.3 186.95 122.79 186.7 C100.9 184.97 79.89 180.78 61 169 C59.35 167.02 57.7 165.04 56 163 C51.76 159.19 47.43 155.54 43 151.94 C31.78 140.86 27.4 128.65 26.67 112.86 C26.7 110.51 26.72 108.17 26.75 105.75 C26.77 103.37 26.78 101 26.8 98.55 C27 93 27 93 28 92 C28.18 86.41 28.28 80.84 28.31 75.25 C28.34 73.69 28.37 72.14 28.4 70.54 C28.45 60.91 27.33 53.15 24 44 C23.38 41.86 22.76 39.71 22.12 37.5 C19.91 30.71 17.05 24.45 14 18 C14 17.34 14 16.68 14 16 C13.01 15.67 12.02 15.34 11 15 C6.92 10.15 3.26 5.43 0 0 Z " fill="#C0DDE0" transform="translate(1026,459)"/>
<path d="M0 0 C20.95 -1.23 39.28 3.77 58 13 C59.26 13.62 60.52 14.23 61.82 14.87 C88.27 28.38 111.76 48.49 122 77 C127.42 100.24 122.44 114.33 111.91 135.2 C110.38 138.25 108.87 141.31 107.38 144.38 C105 149 105 149 102 153.69 C95.53 165.15 91.96 176.36 95.44 189.38 C95.7 190.14 95.7 190.14 97 194 C97.33 195.32 97.66 196.64 98 198 C98.99 198.33 99.98 198.66 101 199 C104.18 202.9 107.21 206.81 110 211 C104.48 210.56 100.18 210.07 95 208 C93.23 207.79 91.45 207.59 89.62 207.38 C72.27 203.77 57.72 192.57 48 178 C40.33 167.33 40.33 167.33 37 164 C32.3 152.48 31.33 142.8 31.62 130.44 C31.64 128.84 31.65 127.24 31.67 125.59 C31.75 119.28 31.96 113.23 33 107 C34.16 68.28 26.85 36.36 3 5 C2.01 4.01 1.02 3.02 0 2 C0 1.34 0 0.68 0 0 Z " fill="#FDC3C7" transform="translate(757,194)"/>
<path d="M0 0 C7.19 4.79 12.71 10.38 18.38 16.88 C21.29 20.2 24.37 23.37 27.5 26.5 C30.47 29.47 33.4 32.47 36.15 35.64 C40.93 41.06 46.01 46.15 51.12 51.25 C52.1 52.23 53.08 53.21 54.08 54.22 C58.25 58.38 62.39 62.31 67 66 C68.38 67.71 69.76 69.42 71.19 71.19 C76 77 76 77 81.56 82 C83.03 83.32 84.49 84.64 86 86 C86 86.99 86 87.98 86 89 C87.65 89.66 89.3 90.32 91 91 C103.82 101.62 103.82 101.62 104.75 108.81 C103.29 122.79 96.34 136.96 86.12 146.69 C84.76 147.78 83.4 148.87 82 150 C73.44 157.56 73.44 157.56 70 161 C68.68 161 67.36 161 66 161 C66 161.66 66 162.32 66 163 C57.05 166.99 50.35 169.15 40.62 169.19 C39.8 169.19 39.8 169.19 35.6 169.23 C31 169 31 169 25 167 C18.97 157.8 16.82 146.52 14 136 C3.96 138.08 -3.22 143.15 -9.25 151.5 C-13.07 163.5 -11.26 175.01 -8 187 C-7.67 188.65 -7.34 190.3 -7 192 C-7.66 192 -8.32 192 -9 192 C-9.33 192.66 -9.33 192.66 -11 196 C-16.75 191.64 -17.91 190.3 -20 183 C-21.98 182.67 -23.96 182.34 -26 182 C-26 176.39 -26 170.78 -26 165 C-25.01 165 -24.02 165 -23 165 C-23 164.34 -23 163.68 -23 163 C-23.66 163 -24.32 163 -25 163 C-25 161.02 -25 159.04 -25 157 C-23.68 157 -22.36 157 -21 157 C-19.97 154.01 -18.98 151.01 -18 148 C-15.19 143.88 -15.19 143.88 -12 140 C-11.03 138.76 -10.06 137.52 -9.06 136.25 C-5.94 132.94 -2.98 131.15 1 129 C1 128.34 1 127.68 1 127 C3.64 127.33 6.28 127.66 9 128 C9 123.71 9 119.42 9 115 C8.01 115 7.02 115 6 115 C5.88 113.49 5.75 111.99 5.62 110.44 C5 105 5 105 3 98 C3 96.68 3 95.36 3 94 C2.01 94 1.02 94 0 94 C0 92.02 0 90.04 0 88 C-0.5 87.84 -0.5 87.84 -3 87 C-2.34 87 -1.68 87 -1 87 C-1 83.04 -1 79.08 -1 75 C-2.32 74.67 -3.64 74.34 -5 74 C-5 73.34 -5 72.68 -5 72 C-4.34 72 -3.68 72 -3 72 C-3 71.01 -3 70.02 -3 69 C-4.65 69 -6.3 69 -8 69 C-8.66 68.34 -9.32 67.68 -10 67 C-9.98 65.06 -9.96 63.12 -9.94 61.12 C-10.02 51.4 -12.19 43.89 -16 35 C-18.43 24.27 -19.58 14.27 -15 4 C-9.15 -0.68 -7.25 -0.72 0 0 Z " fill="#D35363" transform="translate(498,139)"/>
<path d="M0 0 C20.88 10.44 32.44 29.06 41.38 49.81 C54.21 79.32 73.25 98.71 103 111 C110.07 113.62 117.17 116.14 124.3 118.61 C130.64 120.87 136.81 123.37 143 126 C149.23 128.45 153.28 130 160 130 C160 128.02 160 126.04 160 124 C156.77 121.95 156.77 121.95 152.38 120.12 C144.19 116.56 136.7 112.52 129 108 C127.69 107.27 126.37 106.54 125.02 105.79 C121.65 103.92 118.32 101.96 115 100 C115 99.34 115 98.68 115 98 C113.02 97.34 111.04 96.68 109 96 C84.81 86.01 84.81 86.01 76 75 C76 74.34 76 73.68 76 73 C75.01 73 74.02 73 73 73 C72.67 71.02 72.34 69.04 72 67 C73.7 67.29 75.39 67.58 77.14 67.88 C84 69 90.86 69.95 97.75 70.88 C126.33 75.01 147.28 83.26 166 106 C168.21 109.53 170.33 113.12 172.38 116.75 C173.41 118.58 174.45 120.41 175.52 122.3 C178 127 178 127 179 131 C173.6 140.41 164.43 145.29 155 150 C154.01 150 153.02 150 152 150 C152 148.02 152 146.04 152 144 C150.8 144.05 149.6 144.09 148.36 144.14 C135.42 144.42 123.61 142.83 111 140 C109.33 139.69 107.67 139.38 105.95 139.05 C104.65 138.71 103.34 138.36 102 138 C101.67 137.01 101.34 136.02 101 135 C100.08 134.79 100.08 134.79 95.44 133.75 C84.95 131.28 75.45 127.76 67 121 C67 120.01 67 119.02 67 118 C65.35 117.67 63.7 117.34 62 117 C59.6 115.64 57.25 114.2 54.94 112.69 C53.73 111.91 52.52 111.13 51.28 110.32 C46.36 106.83 44.21 105.03 43 99 C41.68 98.34 40.36 97.68 39 97 C36.06 92.73 33.93 88.82 32 84 C31.51 83.01 31.51 83.01 29 78 C26 68.89 26 68.89 26 64 C25.34 64 24.68 64 24 64 C23 60 23 60 23.12 53.81 C23.08 51.89 23.04 49.98 23 48 C22.51 47.84 22.51 47.84 20 47 C19.67 45.85 19.67 45.85 18 40 C17.34 40 16.68 40 16 40 C15.19 37.44 14.48 34.85 13.81 32.25 C11.61 24.34 8.35 17.99 4 11 C4 10.01 4 9.02 4 8 C2.68 7.34 1.36 6.68 0 6 C-1 2 -1 2 0 0 Z " fill="#FCECC5" transform="translate(1064,480)"/>
<path d="M0 0 C0.66 0 1.32 0 2 0 C2.12 0.6 2.12 0.6 2.7 3.62 C5.87 19.06 10.46 29.97 24 39 C31.26 41.68 38.38 43.66 46 45 C44.1 67.99 35.7 87.68 19 104 C9.45 111.09 -0.02 115.22 -11.21 119.18 C-19.75 122.43 -19.75 122.43 -23 125 C-23 133 -23 133 -20 139 C-17.38 141.39 -14.72 143.73 -12 146 C-12 146.33 -12 146.66 -12 147 C-23.67 146.51 -29.72 145.28 -38 137 C-43.05 129 -43.94 122.51 -43 113 C-38.25 106.69 -38.25 106.69 -33 102 C-31.68 102 -30.36 102 -29 102 C-27.68 100.02 -26.36 98.04 -25 96 C-23.87 94.91 -22.73 93.81 -21.56 92.69 C-17.72 88.71 -15.32 85.01 -13 80 C-14 76 -14 76 -18.25 71.56 C-28.53 59.52 -29 47.21 -29 32 C-25.37 28.15 -21.7 24.47 -17.88 20.81 C-11.01 14.23 -5.12 8.09 0 0 Z " fill="#F37AC4" transform="translate(959,468)"/>
<path d="M0 0 C13.7 9.62 18.67 26.42 22.1 42 C23.42 52.28 23.39 62.52 23.5 72.88 C24.15 135.41 24.15 135.41 46.93 159.1 C55.1 166.81 63.73 174.75 75 177 C75 177.66 75 178.32 75 179 C78.33 179.68 81.67 180.34 85 181 C87.41 181.52 89.83 182.03 92.31 182.56 C102.15 184.43 112.02 184.72 122 185 C122 183.68 122 182.36 122 181 C129.92 181 137.84 181 146 181 C146 180.34 146 179.68 146 179 C154.25 176.64 161.43 175.69 170 176 C164.89 181.11 157.7 182.62 151 185 C148.63 185.89 146.26 186.77 143.81 187.69 C136 190.28 128.1 191.32 119.95 192.32 C115 193 115 193 110.49 194.07 C91.81 197.95 64.6 195.96 48 186 C47.34 184.02 46.68 182.04 46 180 C42 177.29 42 177.29 37 174.62 C15.71 162.82 2.77 147.84 -6 125 C-9.32 113.06 -9.46 104.01 -7 92 C-6.84 89.67 -6.67 87.34 -6.5 84.94 C-6.42 83.96 -6.42 83.96 -6 79 C-5.67 78.84 -5.67 78.84 -4 78 C-0.99 66.72 1.33 55.67 2 44 C0.35 43.34 -1.3 42.68 -3 42 C-7 38 -7 38 -7.44 33.5 C-6.73 24.65 -4.49 17.14 -1 9 C-1 6.36 -1 3.72 -1 1 C-0.67 0.67 -0.34 0.34 0 0 Z " fill="#AF9DF4" transform="translate(1022,466)"/>
<path d="M0 0 C3.88 -0.81 3.88 -0.81 8 1 C29.84 21.11 38.76 55.29 40.32 83.87 C40.64 100.51 40.1 117.59 31 132 C28 134 28 134 24 134 C19.64 127.46 18.12 123.49 17.5 115.69 C17.34 113.81 17.17 111.93 17 110 C16.34 109.67 15.68 109.34 15 109 C13.14 115.52 12.45 121.27 12 128 C0.04 122.14 -5.65 111.26 -10.19 99.19 C-13.76 86.99 -15.53 75.51 -15.44 62.81 C-15.43 61.36 -15.42 59.92 -15.42 58.42 C-15.25 47.55 -14.12 37.45 -11 27 C-10.81 26.33 -10.81 26.33 -9.83 22.95 C-7.33 14.89 -4.54 7.12 0 0 Z " fill="#FCA5D0" transform="translate(708,189)"/>
<path d="M0 0 C6 2 6 2 10 6 C10.52 7.84 11.03 9.67 11.56 11.56 C14.55 19.44 18.99 23.19 25 29 C31.03 38.48 32.44 48.13 31.44 59.25 C28.8 69.8 24.77 76.43 16 83 C15.84 83.5 15.84 83.5 15 86 C14.01 86.16 14.01 86.16 9 87 C7.74 87.35 6.48 87.7 5.19 88.06 C-2.26 89.41 -9.44 89.12 -17 89 C-17 88.01 -17 87.02 -17 86 C-18.65 85.67 -20.3 85.34 -22 85 C-27.81 81.62 -27.81 81.62 -33 78 C-33 77.01 -33 76.02 -33 75 C-34.98 74.67 -36.96 74.34 -39 74 C-39.66 73.67 -40.32 73.34 -41 73 C-41.54 69.22 -42.05 65.43 -42.38 61.62 C-42.58 60.43 -42.79 59.23 -43 58 C-43.99 57.67 -44.98 57.34 -46 57 C-46.43 52.81 -46.43 52.81 -46.44 47.44 C-46.46 45.68 -46.48 43.93 -46.5 42.12 C-45.98 36.8 -44.37 33.7 -42 29 C-42.99 28.01 -43.98 27.02 -45 26 C-45 25.34 -45 24.68 -45 24 C-46.65 24 -48.3 24 -50 24 C-48.93 19.72 -47.41 16.69 -45 13 C-44.01 13 -43.02 13 -42 13 C-42 13.66 -42 14.32 -42 15 C-40.35 15 -38.7 15 -37 15 C-36.67 15.99 -36.34 16.98 -36 18 C-35.34 18 -34.68 18 -34 18 C-34 17.01 -34 16.02 -34 15 C-31.19 14.67 -31.19 14.67 -17 13 C-17 11.68 -17 10.36 -17 9 C-10.63 4.62 -8.01 4 0 4 C0 2.68 0 1.36 0 0 Z " fill="#B4BDEF" transform="translate(1321,646)"/>
<path d="M0 0 C5.3 1.89 5.3 1.89 9.3 2.89 C9.25 4.31 9.2 5.74 9.16 7.2 C9.12 9.08 9.08 10.96 9.05 12.89 C9 14.75 8.95 16.6 8.91 18.52 C9.31 24.13 10.22 27.22 13.3 31.89 C16.61 33.92 19.94 35.92 23.3 37.89 C21.29 45.93 12.35 51.16 5.8 55.7 C-5.54 62.28 -14.16 65.05 -27.2 65.2 C-28.22 65.22 -28.22 65.22 -33.36 65.32 C-38.7 64.89 -38.7 64.89 -43.7 60.89 C-48.92 52.78 -49.32 46.42 -48.7 36.89 C-48.04 34.91 -47.38 32.93 -46.7 30.89 C-50.7 31.89 -50.7 31.89 -54.7 36.89 C-55.09 41.97 -55.09 41.97 -54.95 47.7 C-54.94 48.66 -54.94 48.66 -54.84 53.47 C-54.8 54.93 -54.75 56.39 -54.7 57.89 C-61.75 55.07 -64.53 51.14 -68.7 44.89 C-72.69 33.35 -73.25 22.33 -68.7 10.89 C-50.75 -21.42 -28.98 -10.59 0 0 Z " fill="#E6D4E8" transform="translate(661.703125,660.109375)"/>
<path d="M0 0 C29.61 29.61 40.44 66.69 40.69 107.69 C40.71 108.6 40.71 108.6 40.85 113.24 C40.94 125.9 38.54 134.23 32 145 C30.99 146.92 29.98 148.83 28.95 150.8 C23.48 160.63 18.4 168.52 10 176 C8.35 177.98 6.7 179.96 5 182 C2.79 183.83 0.54 185.59 -1.75 187.31 C-18.93 200.58 -18.93 200.58 -22 209 C-23 223 -21.05 229.14 -12 240 C-8.38 242.47 -5.16 244.61 -1 246 C-1 246.66 -1 247.32 -1 248 C-7.25 249.79 -11.61 250.17 -18 250 C-18 249.34 -18 248.68 -18 248 C-20.31 247.34 -22.62 246.68 -25 246 C-25 245.01 -25 244.02 -25 243 C-25.99 243 -26.98 243 -28 243 C-37.96 228.41 -37.96 228.41 -38.06 222 C-35.24 208.7 -28.14 198.24 -20.39 187.33 C1.8 155.64 15.08 119.98 15.31 81.12 C15.34 79.53 15.37 77.94 15.4 76.3 C15.47 63.92 13.96 52.45 9.36 40.89 C8 37 8 37 8 31 C8.33 30.34 8.66 29.68 9 29 C9.99 29.33 10.98 29.66 12 30 C13.81 34.25 13.81 34.25 16 41 C16.49 42.5 16.98 44.01 17.48 45.56 C27.08 76.73 29.38 109.61 17 140 C16.28 141.92 15.56 143.84 14.81 145.81 C11.1 155.31 7.05 164.65 3 174 C9.28 171.91 12.73 164.48 16 159 C18.04 154.2 19.79 149.39 21.43 144.45 C23 140 23 140 25.05 135.93 C37.29 111.19 32.37 76.61 24 51.5 C20.43 41.29 20.43 41.29 17 39 C17.14 37.45 17.29 35.91 17.44 34.31 C16.69 23.47 9.46 16.1 2.88 7.81 C0 4 0 4 0 0 Z " fill="#8E9DEC" transform="translate(930,304)"/>
<path d="M0 0 C0.2 6.57 -0.48 12.4 -1.88 18.81 C-2.22 20.45 -2.57 22.08 -2.93 23.77 C-4 28 -4 28 -6 32 C-6.66 32 -7.32 32 -8 32 C-7.96 33.94 -7.92 35.88 -7.88 37.88 C-7.98 44 -8.76 49.06 -10 55 C-11.54 73.97 -2.41 92.39 9 107 C18.82 118.05 31.07 125.1 44 132 C46 134 46 134 48 140 C70.96 147.95 95.43 149.5 119.09 144.07 C124 143 124 143 130.27 142.14 C137.27 140.95 143.5 139.05 150.19 136.69 C152.37 135.93 154.55 135.17 156.79 134.39 C162.41 132.23 167.63 129.7 173 127 C173.99 127 174.98 127 176 127 C176 128.65 176 130.3 176 132 C172.5 134.5 172.5 134.5 168 137 C166.82 137.83 165.65 138.65 164.44 139.5 C155.07 144.78 145.57 146.97 135 148 C127.23 150.02 119.61 152.46 112 155 C78.99 160.58 43.99 152.74 16.31 134.19 C14.56 132.81 12.81 131.42 11 130 C10.47 129.59 10.47 129.59 7.79 127.51 C-9.06 113.95 -21.51 95.14 -24.56 73.5 C-25.41 67.54 -26.52 61.83 -28 56 C-29.07 48.54 -28.63 47.16 -25 41 C-24.01 39.68 -23.02 38.36 -22 37 C-20.9 33.69 -19.89 30.35 -18.94 27 C-16.19 17.38 -16.19 17.38 -14 13 C-13.86 11.14 -13.71 9.29 -13.56 7.38 C-13.05 5.6 -12.53 3.83 -12 2 C-7.45 0.62 -4.76 0 0 0 Z " fill="#8C5FD5" transform="translate(1024,513)"/>
<path d="M0 0 C2.64 0 5.28 0 8 0 C10.19 3.12 10.19 3.12 12 8 C12.89 10.37 13.77 12.74 14.69 15.19 C19.31 28.81 19.11 41.3 15 55 C14.61 56.67 14.22 58.34 13.81 60.06 C9.53 71.73 -0.13 82.6 -10 90 C-2.67 93.52 3.97 93.38 12 93 C12.66 92.34 13.32 91.68 14 91 C16.31 91.33 18.62 91.66 21 92 C21.33 93.32 21.66 94.64 22 96 C20.7 96.58 19.4 97.15 18.06 97.75 C16.72 98.82 15.38 99.89 14 101 C12.74 113.95 14.74 122.11 22 133 C22 133.66 22 134.32 22 135 C23.32 135.33 24.64 135.66 26 136 C29.69 138.3 33.36 140.63 37 143 C40.48 144.74 44.35 144.13 48.19 144.12 C49.85 144.13 51.52 144.13 53.23 144.13 C58 144 58 144 65 143 C65 142.34 65 141.68 65 141 C63.35 140.67 61.7 140.34 60 140 C51.97 134.57 47.31 128.61 43 120 C41.9 103.1 41.9 103.1 49 95 C54.59 89 60.47 83.94 67 79 C72.26 74.74 76.6 70.14 81 65 C82.32 63.68 83.64 62.36 85 61 C85.66 61 86.32 61 87 61 C87.16 61.82 87.16 61.82 88 66 C88.66 66 89.32 66 90 66 C86.37 73.25 79.46 78.53 73.63 84.11 C71.02 86.67 68.5 89.33 66 92 C66.33 92.99 66.66 93.98 67 95 C67.08 97.6 67.16 100.2 67.25 102.88 C67.91 114.12 70.52 122.74 78.38 131 C79.9 132.65 81.43 134.3 83 136 C82 141 82 141 78.88 143.2 C78.24 143.54 78.24 143.54 75 145.25 C68 149 68 149 67 150 C62.34 150.69 57.67 151.35 53 152 C51.12 152.43 49.25 152.87 47.31 153.31 C35.11 154.89 27.26 149.11 18 142 C10.83 134.96 5.13 125.89 4.9 115.67 C4.91 114.05 4.93 112.42 4.94 110.75 C4.95 109.12 4.96 107.48 4.96 105.8 C4.98 104.54 4.99 103.29 5 102 C3.51 102.17 2.03 102.33 0.5 102.5 C-9.14 101.76 -17.02 97.32 -25 92 C-24.67 90.35 -24.34 88.7 -24 87 C-22.82 86.71 -21.65 86.42 -20.44 86.12 C-12.41 84.09 -8.16 78.19 -3 72 C-2.67 71.84 -2.67 71.84 -1 71 C9.06 47.52 9.3 31.28 1 7 C0.67 4.69 0.34 2.38 0 0 Z " fill="#765EBA" transform="translate(864,409)"/>
<path d="M0 0 C18.28 12.42 30.51 31.47 35 53 C38.19 72.16 31.37 85.43 22.91 102.2 C21.38 105.25 19.87 108.31 18.38 111.38 C16 116 16 116 13 120.69 C6.53 132.15 2.96 143.36 6.44 156.38 C6.7 157.14 6.7 157.14 8 161 C8.33 162.32 8.66 163.64 9 165 C9.99 165.33 10.98 165.66 12 166 C15.18 169.9 18.21 173.81 21 178 C15.48 177.56 11.18 177.07 6 175 C4.23 174.79 2.45 174.59 0.62 174.38 C-16.73 170.77 -31.28 159.57 -41 145 C-48.67 134.33 -48.67 134.33 -52 131 C-56.7 119.48 -57.67 109.8 -57.38 97.44 C-57.37 96.64 -57.37 96.64 -57.33 92.59 C-57.25 86.28 -57.04 80.23 -56 74 C-55.35 52.35 -56.64 32.83 -63 12 C-61.68 12 -60.36 12 -59 12 C-56.7 17.37 -55.16 21.83 -53.88 27.44 C-53.71 28.15 -53.71 28.15 -52.87 31.75 C-51.28 39.52 -50.82 47.01 -50.75 54.94 C-50.74 55.87 -50.74 55.87 -50.67 60.59 C-50.78 62.05 -50.89 63.5 -51 65 C-51.5 65.16 -51.5 65.16 -54 66 C-54 66.66 -54 67.32 -54 68 C-53.34 68 -52.68 68 -52 68 C-52 74.16 -52.38 79.05 -53.5 85 C-53.78 86.51 -54.06 88.01 -54.34 89.56 C-54.56 90.7 -54.78 91.83 -55 93 C-54.34 92.84 -54.34 92.84 -51 92 C-51.06 90.87 -51.12 89.73 -51.19 88.56 C-50.98 82.26 -49.93 76.37 -48.75 70.18 C-47.39 62.62 -46.79 55.17 -46.44 47.5 C-46.35 45.72 -46.27 43.93 -46.18 42.09 C-46.15 41.42 -46.15 41.42 -46 38 C-45.34 38.33 -44.68 38.66 -44 39 C-43.14 53.12 -43.71 67.55 -47.05 81.34 C-51.8 104.67 -43.72 126.47 -31.81 146.31 C-30.88 147.53 -29.96 148.75 -29 150 C-28.01 149.67 -27.02 149.34 -26 149 C-26.74 147.51 -27.49 146.03 -28.25 144.5 C-35.17 128.15 -36.6 114.37 -32 97 C-31.5 96.84 -31.5 96.84 -29 96 C-29 104 -29 104 -30 106 C-30.7 120.66 -30.69 133.61 -24 147 C-20 148 -20 148 -17 147 C-15.95 149.06 -14.9 151.12 -13.81 153.25 C-8.38 162.87 -8.38 162.87 -2 165 C-2 165.66 -2 166.32 -2 167 C-1.01 167 -0.02 167 1 167 C0.68 165.98 0.68 165.98 -0.94 160.81 C-3.9 151.03 -4.87 144.03 -2 134 C-1.48 132.14 -0.97 130.29 -0.44 128.38 C2.19 120.42 5.41 112.9 8.75 105.23 C18.93 81.58 25.06 58.24 17 33 C13.43 24.54 8.28 17.47 3 10 C0 5 0 5 -1 2 C-0.67 1.34 -0.34 0.68 0 0 Z " fill="#FB919C" transform="translate(846,227)"/>
<path d="M0 0 C10.55 5.27 14.43 11.58 19.38 22 C22.99 35.36 22.26 49.02 15.62 61.19 C7.44 74.31 7.44 74.31 0 77 C-7.9 77.66 -13.3 77.35 -20 73 C-30.2 62.8 -33.1 52.8 -33.44 38.5 C-33.18 24.47 -28.8 14.29 -19.31 4 C-13.4 -1.35 -7.78 -0.29 0 0 Z " fill="#221E38" transform="translate(657,425)"/>
<path d="M0 0 C9.38 5.13 9.38 5.13 11 10 C12.51 11.03 14.01 12.06 15.56 13.12 C20 17 20 17 20.75 21.56 C17.87 38.59 3.63 53.43 -9.47 63.73 C-14.9 67.22 -20.93 68.9 -27 71 C-27.33 71.33 -27.33 71.33 -29 73 C-32.16 73.17 -35.33 73.21 -38.5 73.19 C-39.36 73.18 -39.36 73.18 -43.72 73.17 C-48 73 -48 73 -50 72 C-52.47 65.74 -54.44 59.54 -56 53 C-56.54 51.31 -57.07 49.62 -57.62 47.88 C-59 43 -59 43 -59 37 C-56 36 -56 36 -50.06 35.69 C-33.88 34.11 -19.3 26.65 -8 15 C-1.37 5.46 -1.37 5.46 0 0 Z " fill="#FCF3C0" transform="translate(577,230)"/>
<path d="M0 0 C16.6 4.9 29.53 15.32 42 27 C43.79 28.67 45.59 30.34 47.44 32.06 C58.75 43.53 69.89 59.66 75 75 C76.65 75.66 78.3 76.32 80 77 C80.66 77.33 81.32 77.66 82 78 C82.33 79.98 82.66 81.96 83 84 C83.99 84 84.98 84 86 84 C86.93 85.32 87.86 86.64 88.81 88 C97.19 98.01 109.75 102.39 121.55 107.34 C122.69 107.89 123.83 108.43 125 109 C125 109.66 125 110.32 125 111 C126.65 111.66 128.3 112.32 130 113 C135.63 115.99 141.16 119.09 146.62 122.38 C153.15 126.09 159.78 129.27 166.61 132.4 C170 134 170 134 171 135 C171 136.98 171 138.96 171 141 C170.67 141.33 170.34 141.66 170 142 C161.63 141.49 155.22 138.95 147.58 135.68 C140.97 132.99 134.31 130.63 127.56 128.31 C89.86 114.9 67.55 96.98 50 61 C48.88 58.31 47.79 55.6 46.75 52.88 C40.02 36.06 28.13 22.81 13 13 C11.58 11.74 10.15 10.48 8.69 9.19 C5 6 5 6 0 4 C0 2.68 0 1.36 0 0 Z " fill="#FCABB7" transform="translate(1054,469)"/>
<path d="M0 0 C6.55 1.09 8.93 2.93 14 7 C19.15 10.43 25.5 9.36 31.56 9.46 C36 10 36 10 40 14 C40 22 40 22 38 25 C39 31 39 31 42.94 34.94 C47 39 47 39 49 46 C48 53 48 53 46 55 C39.04 56.74 33.82 55.95 27 54 C26.67 53.34 26.34 52.68 26 52 C23.69 52 21.38 52 19 52 C18.67 54.31 18.34 56.62 18 59 C14 65 14 65 12 66 C7.5 66.25 7.5 66.25 3 66 C1 63 1 63 0.19 55.94 C-0.2 53.65 -0.6 51.36 -1 49 C-6 47 -6 47 -11.5 46.12 C-17 45 -17 45 -22 41 C-23.12 35.88 -23.12 35.88 -22 30 C-18.89 27.09 -15.58 24.8 -12.07 22.39 C-7.87 19.12 -7.19 16.11 -6 11 C-3.19 4.88 -3.19 4.88 0 0 Z " fill="#FCE5C8" transform="translate(1253,598)"/>
<path d="M0 0 C2.64 0 5.28 0 8 0 C20.8 15.67 25 41.24 25.28 60.82 C25.3 61.98 25.3 61.98 25.39 67.82 C25.41 69.03 25.41 69.03 25.5 75.12 C25.57 79.88 25.64 84.63 25.72 89.38 C25.75 91.49 25.78 93.6 25.81 95.77 C26.01 102.2 26.46 108.59 27 115 C17.1 114.64 11.37 109.14 4 103 C-5.42 89.12 -10.25 73.57 -7.25 56.81 C-7.04 56.02 -7.04 56.02 -6 52 C-5.31 49.27 -4.62 46.54 -3.94 43.81 C-3.6 42.48 -3.25 41.14 -2.9 39.77 C-0.9 31.41 -0.68 23.17 -0.44 14.62 C-0.39 13.22 -0.35 11.82 -0.31 10.37 C-0.2 6.91 -0.1 3.46 0 0 Z " fill="#F9D9A1" transform="translate(979,390)"/>
<path d="M0 0 C8.81 1.76 13.44 3.62 18.81 11 C23.93 17.93 23.93 17.93 27 21 C39.81 45.41 42.19 67.89 41 95 C40.67 95.33 40.34 95.66 40 96 C39.84 100.25 39.78 104.5 39.75 108.75 C39.74 109.92 39.74 109.92 39.67 115.86 C40.33 130.08 44.11 140.88 53 152 C55.64 154.37 58.31 156.69 61 159 C66.13 163.57 71.14 168.14 76 173 C91.43 181.23 108.53 186.51 125.97 187.85 C126.79 187.92 126.79 187.92 130.94 188.24 C132.63 188.37 134.32 188.49 136.06 188.62 C137.79 188.76 139.51 188.89 141.29 189.03 C145.52 189.36 149.76 189.68 154 190 C154 190.33 154 190.66 154 191 C146.08 191 138.16 191 130 191 C130 192.32 130 193.64 130 195 C113.62 195.59 98.6 194.2 83 189 C83 188.34 83 187.68 83 187 C80.69 186.67 78.38 186.34 76 186 C55.78 175.13 41.95 157.4 34.19 136 C30.33 116.52 30.65 96.52 30.52 76.75 C30.23 53.65 26.54 34.18 13 15 C11.35 13.68 9.7 12.36 8 11 C8 13.64 8 16.28 8 19 C6.73 22.36 5.39 25.69 4 29 C2.44 34.98 1.59 40.85 1 47 C0.34 46.67 -0.32 46.34 -1 46 C-1 44.35 -1 42.7 -1 41 C-1.99 40.67 -2.98 40.34 -4 40 C-5.4 26.17 -3.5 13.34 0 0 Z " fill="#8277D4" transform="translate(1014,456)"/>
<path d="M0 0 C0.23 2.6 0.45 5.2 0.69 7.88 C1.58 15.17 2.65 20.89 7 27 C14.03 30.93 22.19 30.51 30.09 30.79 C34 31 34 31 37 32 C37 46.91 32.07 57.6 23 69 C12.03 79.97 0.25 88.65 -15.69 89.25 C-17.44 89.17 -19.19 89.09 -21 89 C-21 86.69 -21 84.38 -21 82 C-19.64 81.46 -18.28 80.93 -16.88 80.38 C-9.71 76.88 -8.64 72.33 -6 65 C-4.94 58.88 -4.94 58.88 -5 54 C-5.99 53.01 -6.98 52.02 -8 51 C-8.33 48.69 -8.66 46.38 -9 44 C-10.61 41.3 -12.28 38.63 -14 36 C-16.33 26.68 -16.34 19.23 -11.38 10.94 C-1.68 0 -1.68 0 0 0 Z " fill="#FCA4D5" transform="translate(957,487)"/>
<path d="M0 0 C9.75 3.25 15.43 8.28 22 16 C26.86 20.57 31.28 24.57 37 28 C37 28.99 37 29.98 37 31 C33 29 33 29 30 27 C30 26.34 30 25.68 30 25 C28.68 24.34 27.36 23.68 26 23 C25.84 22.5 25.84 22.5 25 20 C21 18 21 18 16 17 C19 24 19 24 21.16 27.36 C25.56 36.04 23.63 47.29 21.5 56.44 C17.99 64.25 13.88 71.21 7.7 77.2 C3.37 81.65 0.11 86.38 -3.31 91.56 C-4.53 93.38 -5.74 95.2 -6.99 97.07 C-11.37 104.25 -12.68 109.69 -12 118 C-9.18 125.95 -5.4 132.83 -1 140 C-1 140.66 -1 141.32 -1 142 C-9.74 140.75 -13.49 137.85 -19.25 131.31 C-25.5 121.5 -27.87 111.5 -27 100 C-23.13 90.84 -18.09 83.06 -12.5 74.87 C2.96 50.93 3.56 27.59 0 0 Z " fill="#A28EEE" transform="translate(884,264)"/>
<path d="M0 0 C5.67 2.84 8.82 7.27 13 12 C20.37 19.58 20.37 19.58 24 22 C17.54 38.14 9.99 47.08 -6 54 C-13.97 56.68 -21.67 58.81 -30 60 C-30.66 60.99 -31.32 61.98 -32 63 C-32.34 61.41 -32.68 59.82 -33.02 58.18 C-33.47 56.1 -33.92 54.02 -34.38 51.88 C-34.82 49.81 -35.26 47.74 -35.71 45.62 C-37 40 -37 40 -39 34 C-39.43 30.68 -39.78 27.34 -40 24 C-39 23 -39 23 -32.94 22.12 C-17.63 19.64 -9.28 12.37 0 0 Z " fill="#FDEDB1" transform="translate(548,202)"/>
<path d="M0 0 C3.88 -0.81 3.88 -0.81 8 1 C29.84 21.11 38.76 55.29 40.32 83.87 C40.64 100.51 40.1 117.59 31 132 C28 134 28 134 24 134 C18.17 125.26 17.79 119.31 18 109 C22.44 113.44 23.85 117.17 26 123 C35.41 108.89 32.44 82.58 29.75 66.44 C26.79 53.86 23.06 42.33 17.8 30.54 C16 26 16 26 15.01 21.05 C14.68 19.71 14.34 18.38 14 17 C12.68 16.34 11.36 15.68 10 15 C9.34 13.68 8.68 12.36 8 11 C6.68 10.67 5.36 10.34 4 10 C3.87 10.57 3.87 10.57 3.23 13.46 C2.89 14.94 2.54 16.42 2.19 17.94 C2.02 18.67 2.02 18.67 1.17 22.4 C0.78 23.59 0.4 24.78 0 26 C-0.99 26.33 -1.98 26.66 -3 27 C-3.41 29.99 -3.72 32.99 -4 36 C-4.52 38.08 -5.03 40.17 -5.56 42.31 C-8.34 55.63 -9.32 72.05 -5 85 C-4.26 88 -3.54 91 -2.81 94 C-0.55 102.76 2.73 110.05 7 118 C7 118.66 7 119.32 7 120 C7.66 120 8.32 120 9 120 C9.33 118.35 9.66 116.7 10 115 C10.66 113.68 11.32 112.36 12 111 C12.66 111 13.32 111 14 111 C13.34 116.61 12.68 122.22 12 128 C-1.8 120.11 -7.63 107.93 -12 93 C-14.52 82.85 -15.51 73.24 -15.44 62.81 C-15.43 61.36 -15.42 59.92 -15.42 58.42 C-15.25 47.55 -14.12 37.45 -11 27 C-10.81 26.33 -10.81 26.33 -9.83 22.95 C-7.33 14.89 -4.54 7.12 0 0 Z " fill="#DB73B9" transform="translate(708,189)"/>
<path d="M0 0 C7.48 3.74 10.53 6.62 14 14 C14.48 14.64 14.48 14.64 16.94 17.88 C22.68 25.62 25.9 34.08 28.88 43.19 C29.56 45.28 30.25 47.37 30.95 49.52 C32.93 55.76 34.78 62.03 36.62 68.31 C38.98 76.16 41.69 82.98 46 90 C46.66 91.65 47.32 93.3 48 95 C48.66 95 49.32 95 50 95 C51.65 96.98 53.3 98.96 55 101 C55.33 101.16 55.33 101.16 57 102 C57 102.66 57 103.32 57 104 C58.32 104.66 59.64 105.32 61 106 C66.23 108.81 71.38 111.6 76.38 114.81 C101.62 129.12 127.73 134.03 156.4 134.95 C159.95 135.12 163.48 135.54 167 136 C167.99 137.65 168.98 139.3 170 141 C156 150 156 150 152 150 C152 148.02 152 146.04 152 144 C150.8 144.05 149.6 144.09 148.36 144.14 C135.42 144.42 123.61 142.83 111 140 C109.33 139.69 107.67 139.38 105.95 139.05 C104.65 138.71 103.34 138.36 102 138 C101.67 137.01 101.34 136.02 101 135 C100.08 134.79 100.08 134.79 95.44 133.75 C84.95 131.28 75.45 127.76 67 121 C67 120.01 67 119.02 67 118 C65.35 117.67 63.7 117.34 62 117 C59.6 115.64 57.25 114.2 54.94 112.69 C53.73 111.91 52.52 111.13 51.28 110.32 C46.36 106.83 44.21 105.03 43 99 C41.68 98.34 40.36 97.68 39 97 C36.06 92.73 33.93 88.82 32 84 C31.51 83.01 31.51 83.01 29 78 C26 68.89 26 68.89 26 64 C25.34 64 24.68 64 24 64 C23 60 23 60 23.12 53.81 C23.08 51.89 23.04 49.98 23 48 C22.51 47.84 22.51 47.84 20 47 C19.67 45.85 19.67 45.85 18 40 C17.34 40 16.68 40 16 40 C15.19 37.44 14.48 34.85 13.81 32.25 C11.61 24.34 8.35 17.99 4 11 C4 10.01 4 9.02 4 8 C2.68 7.34 1.36 6.68 0 6 C-1 2 -1 2 0 0 Z " fill="#F0D6AE" transform="translate(1064,480)"/>
<path d="M0 0 C17.11 -0.53 32.68 0.12 48.81 6.19 C54 8 54 8 61.19 8.38 C68.42 9.04 70.87 10.06 76 15 C81 21.25 81 21.25 81 29 C78.44 31.56 75.79 34.05 73.06 36.44 C69.94 39.18 66.94 42.06 64 45 C63.34 45 62.68 45 62 45 C61.67 46.32 61.34 47.64 61 49 C60.34 49 59.68 49 59 49 C58.34 50.32 57.68 51.64 57 53 C55 55 55 55 50.81 55.44 C45.18 54.93 43.09 53.85 39 50 C35.46 44.09 34.45 39.67 34.5 32.81 C34.49 31.27 34.48 29.73 34.47 28.14 C35 24 35 24 39 19 C39.66 17.68 40.32 16.36 41 15 C38.65 14.61 36.3 14.22 33.88 13.81 C14.1 10.1 14.1 10.1 8 4 C5.34 2.97 2.68 1.97 0 1 C0 0.67 0 0.34 0 0 Z " fill="#C45269" transform="translate(635,642)"/>
<path d="M0 0 C4.75 0.31 4.75 0.31 10.75 3.31 C10.42 4.63 10.09 5.95 9.75 7.31 C5.07 10.12 0.89 11.6 -4.25 13.31 C-4.91 13.97 -5.57 14.63 -6.25 15.31 C0.76 16.31 2.54 16.05 8.75 13.5 C13.78 11.47 18.5 9.81 23.75 8.31 C23.91 8.97 23.91 8.97 24.75 12.31 C26.07 12.31 27.39 12.31 28.75 12.31 C28.75 18.31 28.75 18.31 24.75 23.31 C15.51 30 8.2 32.68 -3.19 33 C-4.22 33.03 -4.22 33.03 -9.46 33.2 C-11.04 33.24 -12.62 33.27 -14.25 33.31 C-13.92 34.3 -13.59 35.29 -13.25 36.31 C-9.43 36.82 -9.43 36.82 -4.69 37 C-3.12 37.07 -1.55 37.13 0.07 37.2 C1.28 37.24 2.5 37.27 3.75 37.31 C3.75 36.65 3.75 35.99 3.75 35.31 C5.73 34.71 7.71 34.12 9.75 33.5 C18.08 30.9 22.83 28.56 28.5 21.94 C29.57 20.74 30.64 19.54 31.75 18.31 C33.07 18.64 34.39 18.97 35.75 19.31 C35.75 20.63 35.75 21.95 35.75 23.31 C36.74 23.64 37.73 23.97 38.75 24.31 C38.66 29.39 37.95 32.02 35.06 36.25 C24.33 46.36 13.33 52.32 -1.56 52.69 C-9.25 52.31 -9.25 52.31 -14.25 49.31 C-14.91 47.99 -15.57 46.67 -16.25 45.31 C-16.91 44.65 -17.57 43.99 -18.25 43.31 C-19.36 34.4 -19.48 27.7 -16.25 19.31 C-15.47 17.23 -14.68 15.15 -13.88 13 C-10.85 6.44 -7.45 0.55 0 0 Z " fill="#D5E8FB" transform="translate(1302.25,662.6875)"/>
<path d="M0 0 C0.64 1.44 1.28 2.89 1.94 4.38 C2.28 5.14 2.28 5.14 4 9 C8.12 10.5 8.12 10.5 13 11 C13.92 11.1 13.92 11.1 18.56 11.62 C20.03 11.75 21.49 11.87 23 12 C22 19 22 19 19.94 22.75 C17 30.72 17.69 38.59 18 47 C10.97 47.29 7.69 46.87 1 44 C-0.65 44 -2.3 44 -4 44 C-4.93 45.15 -5.86 46.31 -6.81 47.5 C-7.86 48.65 -8.92 49.81 -10 51 C-12.64 51 -15.28 51 -18 51 C-20.59 47.12 -20.23 44.57 -20.31 39.94 C-20.54 37.32 -20.77 34.7 -21 32 C-21.83 31.67 -21.83 31.67 -26 30 C-27.65 28.68 -29.3 27.36 -31 26 C-31 21 -31 21 -26 16 C-24.56 15.28 -23.11 14.56 -21.62 13.81 C-16.02 10.4 -13.52 6.46 -10 1 C-8 0 -8 0 0 0 Z " fill="#FDBFE4" transform="translate(1226,639)"/>
<path d="M0 0 C18.28 12.42 30.51 31.47 35 53 C38.19 72.16 31.37 85.43 22.91 102.2 C21.38 105.25 19.87 108.31 18.38 111.38 C16 116 16 116 13 120.69 C6.48 132.23 4.32 141.81 5 155 C4.34 155 3.68 155 3 155 C3 156.65 3 158.3 3 160 C1.68 160.33 0.36 160.66 -1 161 C-3.68 151.16 -4.86 144.01 -2 134 C-1.48 132.14 -0.97 130.29 -0.44 128.38 C2.19 120.42 5.41 112.9 8.75 105.23 C18.93 81.58 25.06 58.24 17 33 C13.43 24.54 8.28 17.47 3 10 C0 5 0 5 -1 2 C-0.67 1.34 -0.34 0.68 0 0 Z " fill="#FA8EB6" transform="translate(846,227)"/>
<path d="M0 0 C0.66 0 1.32 0 2 0 C2.11 4.79 2.19 9.58 2.25 14.38 C2.28 15.72 2.32 17.07 2.35 18.46 C2.46 30.04 0.6 36.77 -6.62 45.75 C-14.71 53.64 -22.42 59 -34 59 C-35.77 55.88 -35.77 55.88 -37.18 51.55 C-37.69 50 -38.21 48.45 -38.74 46.85 C-39 46.03 -39 46.03 -40.31 41.88 C-40.85 40.26 -41.39 38.64 -41.94 36.97 C-44.02 30.62 -45.9 24.6 -47 18 C-45.69 17.94 -45.69 17.94 -39.06 17.62 C-23.36 16.68 -12.44 13.28 -1 2 C-0.67 1.34 -0.34 0.68 0 0 Z " fill="#FBE7B6" transform="translate(1011,322)"/>
<path d="M0 0 C5.22 4.31 9.85 8.9 14.44 13.88 C18.4 18.15 22.37 22.37 26.5 26.5 C30 30 30 30 33.02 33.52 C37.86 38.97 42.97 44.11 48.12 49.25 C49.1 50.23 50.08 51.21 51.08 52.22 C55.25 56.38 59.39 60.31 64 64 C65.38 65.71 66.76 67.42 68.19 69.19 C73 75 73 75 78.56 80 C80.03 81.32 81.49 82.64 83 84 C83 84.99 83 85.98 83 87 C84.65 87.66 86.3 88.32 88 89 C100.82 99.62 100.82 99.62 101.75 106.81 C100.29 120.79 93.34 134.96 83.12 144.69 C81.76 145.78 80.4 146.87 79 148 C70.44 155.56 70.44 155.56 67 159 C65.68 159 64.36 159 63 159 C63 159.66 63 160.32 63 161 C54.05 164.99 47.35 167.15 37.62 167.19 C35.97 167.2 34.31 167.22 32.6 167.23 C28 167 28 167 22 165 C19.44 161.06 19.44 161.06 18 157 C18.99 156.01 19.98 155.02 21 154 C21.99 154 22.98 154 24 154 C26 158 26 158 26 161 C29.4 161.08 32.79 161.14 36.19 161.19 C38.08 161.22 39.97 161.26 41.92 161.29 C47 161 47 161 52 158 C53.9 157.26 55.79 156.51 57.75 155.75 C76.45 147.52 86.22 132.57 95 115 C95.75 110.56 95.75 110.56 95 106 C90.69 102.25 90.69 102.25 86 99 C85.01 97.35 84.02 95.7 83 94 C81.02 92.68 79.04 91.36 77 90 C75.35 88.35 73.7 86.7 72 85 C69 82.26 66.01 79.52 63.01 76.79 C57.61 71.79 52.6 66.75 48 61 C45.34 58.66 42.67 56.33 40 54 C30.15 44.6 30.15 44.6 29 40 C28.67 39.84 28.67 39.84 27 39 C27.66 39 28.32 39 29 39 C21.53 30.12 13.17 22.15 4.9 14.03 C1.9 11.05 -1.06 8.03 -4 5 C-4 4.34 -4 3.68 -4 3 C-3.01 2.67 -2.02 2.34 -1 2 C-0.67 1.34 -0.34 0.68 0 0 Z " fill="#D35264" transform="translate(501,141)"/>
<path d="M0 0 C6.78 3.39 11.09 9.37 16 15 C16.99 15.99 17.98 16.98 19 18 C17.42 25.43 14.18 30.51 9 36 C0.79 40.76 -6.48 44 -16 44 C-18.94 38.12 -19.92 33.42 -21 27 C-21.33 26.67 -21.66 26.34 -22 26 C-23.05 21.25 -24 16.87 -24 12 C-22.41 11.79 -20.82 11.59 -19.19 11.38 C-12.53 9.89 -7.75 7.64 -2 4 C-1.34 2.68 -0.68 1.36 0 0 Z " fill="#FCEDB5" transform="translate(522,176)"/>
<path d="M0 0 C1.98 0.66 3.96 1.32 6 2 C0.69 9.5 -6.06 12.7 -14 17 C-14.99 17.66 -15.98 18.32 -17 19 C-15 23 -15 23 -12 26 C-10 31 -10 31 -10 35 C-9.01 35 -8.02 35 -7 35 C-3 40 -3 40 -3 42 C-5.81 45.62 -5.81 45.62 -11 49 C-26.7 50.65 -26.7 50.65 -32 48 C-34.47 41.74 -36.44 35.54 -38 29 C-38.54 27.31 -39.07 25.62 -39.62 23.88 C-41 19 -41 19 -41 13 C-38 12 -38 12 -32.06 11.69 C-22.12 10.72 -14.82 8.03 -6.12 3.12 C-5.11 2.61 -5.11 2.61 0 0 Z " fill="#FCFBE3" transform="translate(559,254)"/>
<path d="M0 0 C5 1 5 1 8 5 C8.43 6.32 8.87 7.64 9.31 9 C11 13 11 13 17 17 C17.66 18.65 18.32 20.3 19 22 C20.32 22.33 21.64 22.66 23 23 C14.42 30.23 4.1 34.41 -7 36 C-13 33 -14.15 27.89 -17 22 C-17.66 21.67 -18.32 21.34 -19 21 C-19 20.34 -19 19.68 -19 19 C-19.99 19 -20.98 19 -22 19 C-22 20.65 -22 22.3 -22 24 C-22.66 23.67 -23.32 23.34 -24 23 C-24.79 18.35 -25.46 13.68 -26 9 C-25 8 -25 8 -18.94 7.12 C-11.35 5.9 -6.13 4.59 0 0 Z " fill="#FDF1BD" transform="translate(534,217)"/>
<path d="M0 0 C0.33 1.32 0.66 2.64 1 4 C-1.46 7.6 -3.92 10.92 -7 14 C-7.99 14 -8.98 14 -10 14 C-10.66 15.65 -11.32 17.3 -12 19 C-21.74 26.63 -31.96 32.47 -43 38 C-44.49 38.83 -45.98 39.66 -47.51 40.52 C-54.52 43.69 -61.64 45.35 -69.12 46.94 C-70.52 47.27 -71.91 47.59 -73.35 47.93 C-83.57 50.13 -91.7 49.74 -102 48 C-104.23 47.71 -106.45 47.42 -108.75 47.12 C-118.33 45.4 -127.17 42.95 -135 37 C-135.66 35.35 -136.32 33.7 -137 32 C-127.77 34.68 -127.77 34.68 -123.31 36.54 C-98.61 46.28 -71.17 41.35 -47.12 31.75 C-31.09 24.13 -12.59 12.59 0 0 Z " fill="#BD75E8" transform="translate(617,353)"/>
<path d="M0 0 C0.33 0 0.66 0 1 0 C1.37 1.92 1.74 3.84 2.12 5.81 C5.54 18.89 11.89 27.34 22 36 C27.13 40.57 32.14 45.14 37 50 C52.43 58.23 69.53 63.51 86.97 64.85 C87.79 64.92 87.79 64.92 91.94 65.24 C93.63 65.37 95.32 65.49 97.06 65.62 C98.79 65.76 100.51 65.89 102.29 66.03 C106.52 66.36 110.76 66.68 115 67 C115 67.33 115 67.66 115 68 C107.08 68 99.16 68 91 68 C91 69.32 91 70.64 91 72 C74.62 72.59 59.6 71.2 44 66 C44 65.34 44 64.68 44 64 C43.67 63.84 43.67 63.84 42 63 C20.38 50.39 4.86 33.48 -2 9 C-1.31 3.62 -1.31 3.62 0 0 Z " fill="#8C84E2" transform="translate(1053,579)"/>
<path d="M0 0 C1.32 0.33 2.64 0.66 4 1 C4 2.32 4 3.64 4 5 C4.66 5 5.32 5 6 5 C5.34 6.98 4.68 8.96 4 11 C4.17 11.33 4.17 11.33 5 13 C3.93 13.14 2.86 13.29 1.75 13.44 C-6.74 16.23 -13.04 21.29 -18.25 28.5 C-22.07 40.5 -20.26 52.01 -17 64 C-16.67 65.65 -16.34 67.3 -16 69 C-16.66 69 -17.32 69 -18 69 C-18.66 70.32 -19.32 71.64 -20 73 C-25.75 68.64 -26.91 67.3 -29 60 C-30.98 59.67 -32.96 59.34 -35 59 C-35 53.39 -35 47.78 -35 42 C-34.01 42 -33.02 42 -32 42 C-32 41.34 -32 40.68 -32 40 C-32.66 40 -33.32 40 -34 40 C-34 38.02 -34 36.04 -34 34 C-32.68 34 -31.36 34 -30 34 C-28.97 31.01 -27.98 28.01 -27 25 C-24.19 20.88 -24.19 20.88 -21 17 C-20.03 15.76 -19.06 14.52 -18.06 13.25 C-14.94 9.94 -11.98 8.15 -8 6 C-8 5.34 -8 4.68 -8 4 C-5.36 4.33 -2.72 4.66 0 5 C0 3.35 0 1.7 0 0 Z " fill="#B666AC" transform="translate(507,262)"/>
<path d="M0 0 C8.81 1.76 13.44 3.62 18.81 11 C23.93 17.93 23.93 17.93 27 21 C28.43 23.86 29.77 26.76 31.06 29.69 C31.75 31.24 32.45 32.79 33.16 34.39 C36.12 41.81 37.55 46.34 35 54 C34.6 59.23 34.25 64.45 33.94 69.69 C33.85 71.15 33.76 72.62 33.66 74.13 C33.44 77.75 33.22 81.38 33 85 C32.67 85 32.34 85 32 85 C31.89 83.31 31.78 81.62 31.67 79.88 C29.99 55.81 27.21 35.14 13 15 C11.35 13.68 9.7 12.36 8 11 C8 13.64 8 16.28 8 19 C6.73 22.36 5.39 25.69 4 29 C2.44 34.98 1.59 40.85 1 47 C0.34 46.67 -0.32 46.34 -1 46 C-1 44.35 -1 42.7 -1 41 C-1.99 40.67 -2.98 40.34 -4 40 C-5.4 26.17 -3.5 13.34 0 0 Z " fill="#776DBE" transform="translate(1014,456)"/>
<path d="M0 0 C9.38 5.13 9.38 5.13 11 10 C12.51 11.03 14.01 12.06 15.56 13.12 C20 17 20 17 20.75 21.56 C17.84 38.77 3.44 53.53 -9.74 63.96 C-10.82 64.63 -11.89 65.31 -13 66 C-13.99 65.67 -14.98 65.34 -16 65 C-13.85 59.62 -11.63 57.23 -7.56 53.19 C-6.41 52.03 -5.26 50.86 -4.07 49.67 C-1 47 -1 47 2 47 C2.31 40.81 2.31 40.81 2 34 C0.35 32.35 -1.3 30.7 -3 29 C-2 24 -2 24 1.75 21.38 C2.82 20.26 3.89 19.15 5 18 C4.11 12.61 3.04 8.56 0 4 C0 2.68 0 1.36 0 0 Z " fill="#FBCF8B" transform="translate(577,230)"/>
<path d="M0 0 C4.04 3.07 7.19 5.78 10 10 C10.59 21.02 10.59 21.02 7 27 C3 31 3 31 -1.38 31.5 C-7.42 30.85 -10.76 28.24 -15 24 C-17.17 17.5 -17.43 12.81 -17 6 C-11.46 -0.92 -8.53 -1.91 0 0 Z " fill="#F8607C" transform="translate(497,506)"/>
<path d="M0 0 C1.65 0 3.3 0 5 0 C6 1 6 1 6.25 8.75 C7.08 23.23 12.05 31.91 22 42 C22 42.33 22 42.66 22 43 C14.6 43.55 10.14 43.63 3.56 40 C-1.42 35.63 -5.87 31.4 -8 25 C-8.5 16.03 -8.78 10.13 -3 3 C-2.01 2.01 -1.02 1.02 0 0 Z " fill="#869E99" transform="translate(925,503)"/>
<path d="M0 0 C6 2 6 2 10 6 C12.47 14.07 12.47 14.07 10 19 C3.12 19.03 -3.63 18.66 -10.49 18.2 C-23.15 17.53 -30.29 19.65 -40 28 C-41.32 27.67 -42.64 27.34 -44 27 C-44.33 26.01 -44.66 25.02 -45 24 C-46.65 24 -48.3 24 -50 24 C-48.93 19.72 -47.41 16.69 -45 13 C-44.01 13 -43.02 13 -42 13 C-42 13.66 -42 14.32 -42 15 C-40.35 15 -38.7 15 -37 15 C-36.67 15.99 -36.34 16.98 -36 18 C-35.34 18 -34.68 18 -34 18 C-34 17.01 -34 16.02 -34 15 C-31.19 14.67 -31.19 14.67 -17 13 C-17 11.68 -17 10.36 -17 9 C-10.63 4.62 -8.01 4 0 4 C0 2.68 0 1.36 0 0 Z " fill="#D1A5DA" transform="translate(1321,646)"/>
<path d="M0 0 C1.65 0.66 3.3 1.32 5 2 C5.08 8.65 3.12 13.71 0.25 19.62 C-0.43 21.04 -1.1 22.46 -1.8 23.91 C-5.86 31.45 -10.45 36.51 -17 42 C-25.56 49.56 -25.56 49.56 -29 53 C-30.32 53 -31.64 53 -33 53 C-33 53.66 -33 54.32 -33 55 C-41.95 58.99 -48.65 61.15 -58.38 61.19 C-59.2 61.19 -59.2 61.19 -63.4 61.23 C-68 61 -68 61 -74 59 C-76.56 55.06 -76.56 55.06 -78 51 C-77.01 50.01 -76.02 49.02 -75 48 C-74.01 48 -73.02 48 -72 48 C-70 52 -70 52 -70 55 C-66.6 55.08 -63.21 55.14 -59.81 55.19 C-58.87 55.2 -58.87 55.2 -54.08 55.29 C-49 55 -49 55 -44 52 C-43.05 51.63 -43.05 51.63 -38.25 49.75 C-19.55 41.52 -9.78 26.57 -1 9 C-0.58 6.01 -0.23 3.01 0 0 Z " fill="#D66885" transform="translate(597,247)"/>
<path d="M0 0 C2.31 1.65 4.62 3.3 7 5 C0.54 21.14 -7.01 30.08 -23 37 C-30.97 39.68 -38.67 41.81 -47 43 C-47.66 43.99 -48.32 44.98 -49 46 C-49.87 42.29 -50.72 38.59 -51.56 34.88 C-52.04 32.81 -52.51 30.74 -53 28.62 C-54 23 -54 23 -53 17 C-52.01 17 -51.02 17 -50 17 C-50 17.66 -50 18.32 -50 19 C-48.68 19.66 -47.36 20.32 -46 21 C-45.56 22.02 -45.56 22.02 -43.31 27.19 C-42.22 29.11 -41.13 31.02 -40 33 C-32.64 33.99 -26.52 30.18 -20 27 C-17.69 26.01 -15.38 25.02 -13 24 C-6.99 20.68 -4.95 18.92 -1 13 C-0.81 7.81 -0.81 7.81 -1 3 C-0.67 2.01 -0.34 1.02 0 0 Z " fill="#FCCF87" transform="translate(565,219)"/>
<path d="M0 0 C4.39 2.29 7.51 4.51 11 8 C11 10.31 11 12.62 11 15 C9 16 9 16 2.94 16.31 C0.98 16.54 -0.98 16.77 -3 17 C-3.33 18.32 -3.66 19.64 -4 21 C-4.99 21.66 -5.98 22.32 -7 23 C-7.66 25.31 -8.32 27.62 -9 30 C-13 31.19 -13 31.19 -17 31 C-19.4 26.21 -19.37 22.97 -19.44 17.62 C-19.48 15.97 -19.52 14.31 -19.56 12.6 C-19 8 -19 8 -14 2 C-8.9 -0.55 -5.67 -0.47 0 0 Z " fill="#F6CF90" transform="translate(698,655)"/>
<path d="M0 0 C5.57 4.34 10.47 9.36 15.44 14.38 C16.15 15.09 16.15 15.09 19.75 18.71 C20.82 19.8 21.89 20.88 23 22 C17.5 28.88 17.5 28.88 13 30 C13 30.66 13 31.32 13 32 C8.43 33.24 4.77 34 0 34 C-6.61 10.23 -6.61 10.23 -2 1 C-1.34 0.67 -0.68 0.34 0 0 Z " fill="#FCF0C1" transform="translate(494,147)"/>
<path d="M0 0 C0 0.99 0 1.98 0 3 C-2.95 5.4 -5.96 7.72 -9 10 C-18.04 17.42 -24.31 24.2 -26 36 C-31.27 33.2 -35.53 29.94 -40 26 C-40.66 25.67 -41.32 25.34 -42 25 C-42.66 23.35 -43.32 21.7 -44 20 C-32.7 8.94 -14.98 3.57 0 0 Z " fill="#A66FE7" transform="translate(626,203)"/>
<path d="M0 0 C1.98 1.32 3.96 2.64 6 4 C4.34 14.98 -4.48 23.52 -13 30 C-25.56 37.57 -36.27 41.1 -51 42 C-51.66 42.17 -51.66 42.17 -55 43 C-55.16 42.5 -55.16 42.5 -56 40 C-55.34 38.68 -54.68 37.36 -54 36 C-50.44 35.26 -46.87 34.54 -43.29 33.9 C-29.07 30.92 -17.4 25.28 -8 14 C-5.63 9.69 -3.29 5.36 -1 1 C-0.67 0.67 -0.34 0.34 0 0 Z " fill="#F99865" transform="translate(572,225)"/>
<path d="M0 0 C1.65 0 3.3 0 5 0 C7.86 4.29 7.59 6.91 7 12 C2.79 18.05 -1.23 21.24 -8 24 C-13.16 24.5 -13.16 24.5 -18.62 24.44 C-20.43 24.44 -22.24 24.43 -24.1 24.43 C-29 24 -29 24 -35 21 C-35.33 19.68 -35.66 18.36 -36 17 C-32.85 13.85 -21.99 15.07 -17.68 14.79 C-12.25 14.04 -9.29 13.31 -5 10 C-4.13 8.27 -3.27 6.53 -2.38 4.75 C-1.59 3.18 -0.81 1.62 0 0 Z " fill="#BB6CB5" transform="translate(571,563)"/>
<path d="M0 0 C0 0.33 0 0.66 0 1 C-2.97 1 -5.94 1 -9 1 C-9 1.66 -9 2.32 -9 3 C-8.34 3 -7.68 3 -7 3 C-6.67 3.66 -6.34 4.32 -6 5 C-4.02 5.66 -2.04 6.32 0 7 C4.66 13.73 4.91 21.05 6 29 C6.5 29.82 6.5 29.82 9 34 C13.69 34.81 13.69 34.81 18 35 C17.67 35.66 17.34 36.32 17 37 C13.86 37.17 10.71 37.21 7.56 37.19 C5.83 37.18 4.1 37.17 2.32 37.17 C-2 37 -2 37 -4 36 C-6.47 29.74 -8.44 23.54 -10 17 C-10.54 15.31 -11.07 13.62 -11.62 11.88 C-13 7 -13 7 -13 1 C-8.67 -0.44 -4.53 -0.06 0 0 Z " fill="#FCE4A9" transform="translate(531,266)"/>
<path d="M0 0 C0.66 0 1.32 0 2 0 C2 10.4 -0.97 17.3 -8 25 C-18.21 29.39 -29.74 31 -40.25 27 C-41.49 26.34 -42.72 25.68 -44 25 C-43.84 24.5 -43.84 24.5 -43 22 C-39.39 21.23 -39.39 21.23 -34.69 20.62 C-23.37 18.9 -13.66 15.75 -5 8 C-3.27 5.37 -1.59 2.71 0 0 Z " fill="#C8E0F9" transform="translate(1342,697)"/>
<path d="M0 0 C3.93 3.14 7.05 6.07 10.06 10.12 C13 14 13 14 19 18 C20.32 19.65 21.64 21.3 23 23 C24.98 23.66 26.96 24.32 29 25 C28.67 23.68 28.34 22.36 28 21 C29.65 21.99 31.3 22.98 33 24 C43.28 29.98 51.31 33.04 63 35 C67.88 36.5 67.88 36.5 71 38 C71.33 38.99 71.66 39.98 72 41 C58.7 45.05 45.81 40.27 33.88 34.12 C28.17 30.86 23.02 27.27 18 23 C16.33 21.6 14.66 20.19 12.94 18.75 C7.85 13.85 3.88 8.89 0 3 C0 2.01 0 1.02 0 0 Z " fill="#B85CA7" transform="translate(792,367)"/>
<path d="M0 0 C18.95 -0.58 36.38 0.45 54 8 C54.16 8.33 54.16 8.33 55 10 C53.37 10.27 51.74 10.54 50.06 10.81 C48.39 11.2 46.72 11.6 45 12 C44.67 12.99 44.34 13.98 44 15 C16.28 12.28 16.28 12.28 8 4 C5.34 2.97 2.68 1.97 0 1 C0 0.67 0 0.34 0 0 Z " fill="#E36F74" transform="translate(635,642)"/>
<path d="M0 0 C0.99 0.33 1.98 0.66 3 1 C4.81 5.25 4.81 5.25 7 12 C7.49 13.5 7.98 15.01 8.48 16.56 C15.91 40.69 22.69 76.1 12 100 C11.67 100 11.34 100 11 100 C10.93 94.45 11.08 89.5 12 84 C12.08 80.96 12.11 77.92 12.1 74.88 C12.09 73.14 12.09 71.4 12.09 69.61 C12.08 67.8 12.07 65.99 12.06 64.12 C12.06 62.29 12.05 60.46 12.05 58.57 C12.04 54.05 12.02 49.52 12 45 C11.34 45 10.68 45 10 45 C10 46.98 10 48.96 10 51 C9.67 51 9.34 51 9 51 C8.7 49.15 8.39 47.31 8.08 45.4 C5.88 32.47 3.41 20.34 -1 8 C-1 2 -1 2 0 0 Z " fill="#978BE4" transform="translate(939,333)"/>
<path d="M0 0 C1.32 0 2.64 0 4 0 C3 7 1.7 9.28 -2 15 C-3.33 18.04 -4.6 21.1 -5.81 24.19 C-9.2 32.41 -12.99 39.66 -18 47 C-18.66 47 -19.32 47 -20 47 C-20.33 48.32 -20.66 49.64 -21 51 C-26.87 56.87 -32.92 62.52 -38.97 68.19 C-42.02 71.08 -45.03 74.03 -48 77 C-64 88.09 -83.07 98 -103 98 C-100 96 -100 96 -94.56 94.88 C-80.33 91.35 -67.47 85.64 -55 78 C-54.34 77.84 -54.34 77.84 -51 77 C-51 76.01 -51 75.02 -51 74 C-48.13 71.84 -45.26 69.69 -42.36 67.57 C-21.26 51.42 -11.64 28.73 -2.3 4.69 C-1.92 3.91 -1.92 3.91 0 0 Z " fill="#AC8FED" transform="translate(641,261)"/>
<path d="M0 0 C5 2 5 2 11 6 C15 8 15 8 20.25 8.12 C33.19 9.8 43.9 17.49 55 24 C57.31 24.99 59.62 25.98 62 27 C62.99 27.66 62.99 27.66 68 31 C67.67 31.99 67.34 32.98 67 34 C66.51 34.16 66.51 34.16 64 35 C63.34 35.66 62.68 36.32 62 37 C61.4 36.63 61.4 36.63 58.38 34.77 C56.79 33.79 55.2 32.82 53.56 31.81 C52 30.85 50.43 29.89 48.82 28.89 C45.56 26.94 42.25 25.06 38.9 23.26 C37.61 22.52 36.33 21.77 35 21 C35 20.34 35 19.68 35 19 C33.02 18.34 31.04 17.68 29 17 C7.89 8.28 7.89 8.28 0 1 C0 0.67 0 0.34 0 0 Z " fill="#FDDEA6" transform="translate(1144,559)"/>
<path d="M0 0 C0.33 0 0.66 0 1 0 C2.09 5.45 2 10.45 2 16 C2.33 17.32 2.66 18.64 3 20 C6.88 19.44 6.88 19.44 11 18 C11.66 15.69 12.32 13.38 13 11 C13.99 10.67 14.98 10.34 16 10 C16.33 8.68 16.66 7.36 17 6 C21.17 3.92 26.42 4.34 31 4 C31.16 4.99 31.16 4.99 32 10 C26.69 15.88 26.69 15.88 21 21 C20.34 21 19.68 21 19 21 C18.67 22.32 18.34 23.64 18 25 C10.93 25.45 6.14 24.63 0 21 C-3 14 -3 14 -3 7 C-2.01 4.69 -1.02 2.38 0 0 Z " fill="#D48074" transform="translate(678,666)"/>
<path d="M0 0 C5 1 5 1 8 5 C8.43 6.32 8.87 7.64 9.31 9 C11 13 11 13 17 17 C17.66 18.65 18.32 20.3 19 22 C20.32 22.33 21.64 22.66 23 23 C15.62 29 15.62 29 10 29 C10 27.02 10 25.04 10 23 C8.35 22.67 6.7 22.34 5 22 C0.45 18.55 -2.03 15.95 -5 11 C-5 8.69 -5 6.38 -5 4 C-3.35 2.68 -1.7 1.36 0 0 Z " fill="#FDFAE2" transform="translate(534,217)"/>
<path d="M0 0 C1 1 1 1 1 9 C-1 11 -1 11 -6 12 C-7.15 12.5 -7.15 12.5 -13 15 C-27.02 16.91 -27.02 16.91 -35 13.25 C-36.32 12.18 -37.64 11.11 -39 10 C-39 9.01 -39 8.02 -39 7 C-38.39 6.95 -38.39 6.95 -35.3 6.7 C-23.37 5.62 -11.49 0 0 0 Z " fill="#E76FA7" transform="translate(738,640)"/>
<path d="M0 0 C0.66 0.33 1.32 0.66 2 1 C1 8 1 8 -1 12 C-1.99 12 -2.98 12 -4 12 C-4.66 13.65 -5.32 15.3 -6 17 C-8.6 20.38 -11.28 23.71 -14 27 C-14.99 28.34 -15.98 29.68 -17 31.06 C-20.67 34.66 -22.95 34.91 -28 35 C-28.33 33.68 -28.66 32.36 -29 31 C-31.31 31 -33.62 31 -36 31 C-36.66 31.66 -37.32 32.32 -38 33 C-45.06 33.25 -45.06 33.25 -52 33 C-52.33 32.34 -52.66 31.68 -53 31 C-51.44 30.6 -49.89 30.2 -48.29 29.79 C-46.23 29.26 -44.18 28.73 -42.06 28.19 C-41.05 27.93 -41.05 27.93 -35.91 26.61 C-18.56 21.89 -9.74 15.08 0 0 Z " fill="#81B1F0" transform="translate(914,470)"/>
<path d="M0 0 C5 1 5 1 11 3 C10.34 3.33 10.34 3.33 7 5 C7.16 7.14 7.33 9.29 7.5 11.5 C8.01 19.13 7.15 22.26 4 29 C2.44 34.98 1.59 40.85 1 47 C0.34 46.67 -0.32 46.34 -1 46 C-1 44.35 -1 42.7 -1 41 C-1.99 40.67 -2.98 40.34 -4 40 C-5.4 26.17 -3.5 13.34 0 0 Z " fill="#7B5DBD" transform="translate(1014,456)"/>
<path d="M0 0 C5 4 5 4 5.62 9.44 C5 15 5 15 0 20 C-5.56 20.69 -5.56 20.69 -11 20 C-15 14 -15 14 -15 6 C-10.75 -0.1 -7.26 -1.02 0 0 Z " fill="#F8F8F9" transform="translate(659,435)"/>
<path d="M0 0 C2.64 1.98 5.28 3.96 8 6 C-1.66 19.11 -8.37 26.96 -25 30 C-27.66 30.38 -30.33 30.74 -33 31 C-33.66 29.02 -34.32 27.04 -35 25 C-33.78 24.73 -33.78 24.73 -27.62 23.38 C-18.35 21.02 -11.52 18.3 -5.56 10.5 C-3.6 7.06 -1.77 3.54 0 0 Z " fill="#FBA56C" transform="translate(541,195)"/>
<path d="M0 0 C3.69 2.44 3.69 2.44 7 6 C5.92 13.43 2.07 18.62 -3 24 C-11.21 28.76 -18.48 32 -28 32 C-31 26 -31 26 -31 20 C-30.34 20.33 -30.34 20.33 -27 22 C-27 22.66 -27 23.32 -27 24 C-19.38 22.25 -19.38 22.25 -16 20 C-13.69 20 -11.38 20 -9 20 C-4.56 17.81 -4.56 17.81 -1 14 C-0.56 7.19 -0.56 7.19 -1 1 C-0.67 0.67 -0.34 0.34 0 0 Z " fill="#FCD994" transform="translate(534,188)"/>
<path d="M0 0 C7 2 7 2 12.44 5.31 C19.9 9.51 26.79 11.66 35 14 C31.13 11.42 27.07 9.24 23 7 C23.33 6.34 23.66 5.68 24 5 C29.57 6.56 34.01 8.01 39 11 C41.65 11.73 44.32 12.41 47 13 C47 13.66 47 14.32 47 15 C49.97 15 52.94 15 56 15 C55.84 15.83 55.84 15.83 55 20 C57.43 19.96 59.87 19.92 62.38 19.88 C70 20 70 20 72 22 C48.49 22.41 21.39 18.64 2 4 C1.34 2.68 0.68 1.36 0 0 Z " fill="#CEE6F9" transform="translate(1084,623)"/>
<path d="M0 0 C0.99 0 1.98 0 3 0 C2.55 1.3 2.09 2.6 1.62 3.94 C0 9 0 9 -0.62 13.56 C-3.07 21.44 -9.14 24.91 -16 28.94 C-20.87 30.94 -24.77 31.75 -30 32 C-30.56 27.69 -30.56 27.69 -30 23 C-26.12 21.25 -26.12 21.25 -21 20 C-10.41 15.61 -6.22 9.34 0 0 Z " fill="#F8AF90" transform="translate(1007,349)"/>
<path d="M0 0 C7.7 0.3 13.22 3.57 20 7 C21.65 7 23.3 7 25 7 C25.66 8.32 26.32 9.64 27 11 C30.65 13.36 34.32 15.69 38 18 C49.23 26.83 59.1 35.81 68 47 C75.63 55.82 75.63 55.82 78 57 C78 58.32 78 59.64 78 61 C69.06 57.42 63.41 48.77 58 41 C58 40.34 58 39.68 58 39 C56.68 38.34 55.36 37.68 54 37 C51.86 35.04 49.76 33.03 47.69 31 C35.06 19.15 20.43 10.61 4.62 3.62 C1 2 1 2 0 0 Z " fill="#B0539A" transform="translate(807,195)"/>
<path d="M0 0 C7.05 2.08 12.55 5.04 18 10 C18.16 10.99 18.16 10.99 19 16 C14 15 14 15 9.69 13.06 C1.76 9.57 -5.36 8.7 -14 8.38 C-15.88 8.3 -17.75 8.23 -19.69 8.15 C-21.11 8.1 -22.53 8.05 -24 8 C-18.18 -1.69 -10.32 -0.89 0 0 Z " fill="#36313B" transform="translate(666,395)"/>
<path d="M0 0 C0.33 0 0.66 0 1 0 C1.34 10.55 0.87 19.8 -4.31 29.19 C-7 32 -7 32 -13 33 C-18.83 24.26 -19.21 18.31 -19 8 C-14.56 12.44 -13.15 16.17 -11 22 C-9 19 -9 19 -7.62 12.38 C-7.09 10.27 -6.55 8.17 -6 6 C-4.68 5.67 -3.36 5.34 -2 5 C-1.34 3.35 -0.68 1.7 0 0 Z " fill="#AC58AC" transform="translate(745,290)"/>
<path d="M0 0 C0.33 0 0.66 0 1 0 C1.12 14.25 1.12 14.25 0 21 C-2.09 40.79 3.41 55.42 14.93 71.48 C15.95 72.97 16.96 74.46 18 76 C17.67 76.99 17.34 77.98 17 79 C11.81 75.88 8.85 72.61 5 68 C5.33 67.84 5.33 67.84 7 67 C5.77 63.87 4.51 60.74 3.25 57.62 C2.55 55.88 1.86 54.14 1.14 52.35 C-1 48 -1 48 -5 46 C-6.21 41.17 -6.21 36.79 -6.25 31.81 C-6.28 30 -6.3 28.2 -6.33 26.33 C-6.22 24.9 -6.11 23.47 -6 22 C-5.01 21.67 -4.02 21.34 -3 21 C-2.3 17.07 -2.3 17.07 -1.88 12.12 C-1.07 3.21 -1.07 3.21 0 0 Z " fill="#9976EC" transform="translate(1025,540)"/>
<path d="M0 0 C0.99 0 1.98 0 3 0 C1.62 7.25 -0.7 13.74 -3.5 20.56 C-4.29 22.52 -5.09 24.48 -5.91 26.5 C-6.25 27.25 -6.25 27.25 -8 31 C-8.66 31 -9.32 31 -10 31 C-13.55 40.66 -14.18 49.08 -14.19 59.31 C-14.2 60.7 -14.21 62.08 -14.22 63.5 C-14.24 74.37 -13.96 85.33 -10.38 95.69 C-8.59 101.28 -8.68 106.17 -9 112 C-9.66 112.99 -10.32 113.98 -11 115 C-10.92 113.29 -10.84 111.58 -10.75 109.81 C-11.02 102.48 -12.74 96.96 -15 90 C-21.85 61.14 -16.43 38.58 -4.68 12.11 C-2 6 -2 6 0 0 Z " fill="#AA83F0" transform="translate(675,197)"/>
<path d="M0 0 C0.95 0.01 0.95 0.01 5.74 0.05 C7.19 0.08 8.63 0.1 10.12 0.12 C9.79 1.44 9.47 2.76 9.12 4.12 C4 4.95 4 4.95 -2.44 5.38 C-3.5 5.45 -3.5 5.45 -8.88 5.83 C-9.7 5.88 -9.7 5.88 -13.88 6.12 C-13.88 7.12 -13.88 8.1 -13.88 9.12 C-16.48 10.89 -19.16 12.54 -21.88 14.12 C-23.36 15.05 -24.85 15.98 -26.38 16.94 C-26.95 17.3 -26.95 17.3 -29.88 19.12 C-30.21 17.81 -30.53 16.49 -30.88 15.12 C-32.59 16.82 -34.3 18.51 -36.06 20.25 C-37.03 21.2 -37.99 22.15 -38.98 23.13 C-41.75 26 -44.32 29.06 -46.88 32.12 C-47.37 32.29 -47.37 32.29 -49.88 33.12 C-45.12 21.24 -33.23 11.69 -21.88 6.12 C-20.88 6.12 -19.89 6.12 -18.88 6.12 C-18.22 4.81 -17.55 3.49 -16.88 2.12 C-10.71 0.07 -6.45 -0.08 0 0 Z " fill="#AF7FED" transform="translate(661.875,195.875)"/>
<path d="M0 0 C0.66 0 1.32 0 2 0 C4.62 14.38 5.41 29.54 3 44 C2.67 44 2.34 44 2 44 C1.67 42.02 1.34 40.04 1 38 C0.67 38.82 0.67 38.82 -1 43 C-1.99 43 -2.98 43 -4 43 C-4 30.46 -4 17.92 -4 5 C-3.01 5.33 -2.02 5.66 -1 6 C-0.67 4.02 -0.34 2.04 0 0 Z " fill="#D26DB4" transform="translate(744,253)"/>
<path d="M0 0 C0.31 1.24 0.63 2.49 0.95 3.77 C3.25 12.69 5.64 21.4 9 30 C2 30 2 30 -3 26 C-4.4 21.35 -5.74 16.69 -7 12 C-7.66 12 -8.32 12 -9 12 C-9 10.02 -9 8.04 -9 6 C-12 7 -12 7 -13 9 C-14.32 8.67 -15.64 8.34 -17 8 C-6.24 0 -6.24 0 0 0 Z " fill="#89B9E8" transform="translate(513,274)"/>
<path d="M0 0 C2 2 2 2 2.38 6.88 C2 12 2 12 -2 16 C-4.64 16 -7.28 16 -10 16 C-10 16.99 -10 17.98 -10 19 C-11.32 18.67 -12.64 18.34 -14 18 C-17 13 -17 13 -17 5 C-10.48 -0.21 -8.34 -0.31 0 0 Z " fill="#FBF3D3" transform="translate(698,655)"/>
<path d="M0 0 C2.31 0 4.62 0 7 0 C9.12 4.25 9.12 4.25 11 9 C11.82 9.66 11.82 9.66 16 13 C16.66 11.68 17.32 10.36 18 9 C20.42 10.75 22.84 12.5 25.25 14.25 C26.6 15.22 27.94 16.2 29.33 17.2 C33 20 33 20 37 24 C37 24.33 37 24.66 37 25 C29 25 29 25 22 23 C20.68 21.68 19.36 20.36 18 19 C16.06 18.24 14.12 17.47 12.12 16.69 C6.11 14.05 3.42 12.51 0 7 C0 4.69 0 2.38 0 0 Z " fill="#B89EDD" transform="translate(471,321)"/>
<path d="M0 0 C4 3 4 3 5 7 C2.69 7.66 0.38 8.32 -2 9 C-7 12 -7 12 -9 18 C-9.33 19.32 -9.66 20.64 -10 22 C-11.65 22.66 -13.3 23.32 -15 24 C-17.17 17.5 -17.43 12.81 -17 6 C-11.36 -1.05 -8.63 -1.56 0 0 Z " fill="#FB96A8" transform="translate(497,506)"/>
<path d="M0 0 C8 0 8 0 11 1 C11.33 3.31 11.66 5.62 12 8 C17.51 14.61 21.17 15.9 29 19 C29.82 19.66 29.82 19.66 34 23 C29 24 29 24 22 22 C22 22.66 22 23.32 22 24 C14.94 21.18 8.4 17.4 3 12 C3.31 7.81 3.31 7.81 4 4 C3.34 4 2.68 4 2 4 C2 3.34 2 2.68 2 2 C1.34 2 0.68 2 0 2 C0 1.34 0 0.68 0 0 Z " fill="#AD69BD" transform="translate(460,320)"/>
<path d="M0 0 C0.66 0.66 1.32 1.32 2 2 C1.67 2.66 1.34 3.32 1 4 C-0.65 3.67 -2.3 3.34 -4 3 C-3.25 14.38 -3.25 14.38 -1 20 C1.51 35.08 0.81 50.15 -6 64 C-6.99 63.67 -7.98 63.34 -9 63 C-7.99 59.26 -6.98 55.51 -5.97 51.77 C-1.32 33.74 -5.43 19.87 -12 3 C-12 2.34 -12 1.68 -12 1 C-8.01 0.58 -4.01 0.25 0 0 Z " fill="#8DCEF7" transform="translate(885,409)"/>
<path d="M0 0 C4 2 4 2 8 6 C7.34 6 6.68 6 6 6 C5.67 7.32 5.34 8.64 5 10 C-2.38 15.31 -9.88 18.53 -19 19 C-21 17 -21 17 -22 11 C-17.43 9.76 -13.77 9 -9 9 C-9 8.34 -9 7.68 -9 7 C-7.02 5.68 -5.04 4.36 -3 3 C-2.01 2.01 -1.02 1.02 0 0 Z " fill="#FAA76D" transform="translate(516,170)"/>
<path d="M0 0 C1.38 8.38 1.38 8.38 -2 14 C-8.96 15.74 -14.18 14.95 -21 13 C-21.33 12.34 -21.66 11.68 -22 11 C-23.65 11 -25.3 11 -27 11 C-24.13 6.7 -20.94 5.23 -16 4 C-13 3.96 -10 3.96 -7 4 C-7 3.34 -7 2.68 -7 2 C-1 0 -1 0 0 0 Z " fill="#F7B1C9" transform="translate(1301,639)"/>
<path d="M0 0 C3.35 3.35 3.49 7.89 4.5 12.44 C6.78 22.67 6.78 22.67 9 26 C8.35 46.59 -2.34 68.17 -15 84 C-15.33 82.68 -15.66 81.36 -16 80 C-14.1 76.83 -12.18 73.66 -10.19 70.54 C-1.81 56.99 5.8 39.18 4 23 C2.69 18.66 1.36 14.33 0 10 C-0.25 4.19 -0.25 4.19 0 0 Z " fill="#834CB3" transform="translate(661,274)"/>
<path d="M0 0 C7.54 1.08 13.87 3.37 21 6 C22.98 6.66 24.96 7.32 27 8 C28 9 28 9 28 14 C28.83 14.17 28.83 14.17 33 15 C34.98 16.65 36.96 18.3 39 20 C38.84 20.5 38.84 20.5 38 23 C34 21 34 21 29 18 C27.62 17.32 26.24 16.64 24.81 15.94 C21 14 21 14 19 12 C19 11.01 19 10.02 19 9 C16.69 8.34 14.38 7.68 12 7 C14 12 14 12 16 15 C15.67 15.5 15.67 15.5 14 18 C14 17.34 14 16.68 14 16 C13.01 15.67 12.02 15.34 11 15 C6.92 10.15 3.26 5.43 0 0 Z " fill="#B5C0B6" transform="translate(1026,459)"/>
<path d="M0 0 C0.99 0.33 1.98 0.66 3 1 C4 4 5 7 6 10 C6.99 10.33 7.98 10.66 9 11 C12.18 14.9 15.21 18.81 18 23 C6.77 22.52 -0.85 18.62 -9 11 C-8.67 10.34 -8.34 9.68 -8 9 C-7.01 9.33 -6.02 9.66 -5 10 C-5 10.66 -5 11.32 -5 12 C-4.01 12 -3.02 12 -2 12 C-2.33 10.02 -2.66 8.04 -3 6 C-2.01 5.67 -1.02 5.34 0 5 C0 3.35 0 1.7 0 0 Z " fill="#F3A0A8" transform="translate(849,382)"/>
<path d="M0 0 C1.67 3.17 3.34 6.35 5 9.52 C9.15 16.74 14.13 21.42 21 26 C21 26.33 21 26.66 21 27 C11.31 27 3.99 23.13 -4 18 C-4.66 17.01 -5.32 16.02 -6 15 C-1 15 -1 15 2 17 C-0.05 11.88 -2.7 8.38 -6 4 C-6 3.34 -6 2.68 -6 2 C-2 0 -2 0 0 0 Z " fill="#F68390" transform="translate(829,374)"/>
<path d="M0 0 C4 2 4 2 5.41 5.93 C9.35 21.99 12.42 37.35 11 54 C10.5 54.17 10.5 54.17 8 55 C7.67 56.32 7.34 57.64 7 59 C6.98 58.12 6.98 58.12 6.89 53.69 C6.37 35.17 4.18 18.76 -1 1 C-0.67 0.67 -0.34 0.34 0 0 Z " fill="#F191C0" transform="translate(784,238)"/>
<path d="M0 0 C1.28 0.87 2.56 1.73 3.88 2.62 C7.37 4.92 10.94 7.11 14.56 9.19 C16.03 10.12 17.49 11.04 19 12 C19 12.99 19 13.98 19 15 C17.02 14.34 15.04 13.68 13 13 C12.67 12.01 12.34 11.02 12 10 C10.02 9.34 8.04 8.68 6 8 C4.68 7.34 3.36 6.68 2 6 C0.17 17.01 -0.31 26.89 1 38 C1 39.65 1 41.3 1 43 C0.34 43 -0.32 43 -1 43 C-5.6 30.66 -6.34 18.82 -3 6 C-2.01 4.02 -1.02 2.04 0 0 Z " fill="#EEC7F3" transform="translate(463,332)"/>
<path d="M0 0 C1.32 0.33 2.64 0.66 4 1 C4 2.32 4 3.64 4 5 C5.32 5.33 6.64 5.66 8 6 C5.82 12.54 3.67 14.81 -1.19 19.56 C-2.48 20.84 -3.77 22.12 -5.11 23.44 C-8.61 26.64 -11.96 29.51 -16 32 C-16.99 31.67 -17.98 31.34 -19 31 C-16.85 25.62 -14.63 23.23 -10.56 19.19 C-9.41 18.03 -8.26 16.86 -7.07 15.67 C-4 13 -4 13 -1 13 C-0.67 8.71 -0.34 4.42 0 0 Z " fill="#FBE1A3" transform="translate(580,264)"/>
<path d="M0 0 C0.33 0 0.66 0 1 0 C1.27 1.73 1.54 3.47 1.81 5.25 C3 12 3 12 4.62 18.31 C6 24 6 24 6 31 C2.49 26.32 1.93 22.96 0.81 17.25 C0.47 15.52 0.12 13.8 -0.23 12.02 C-0.48 10.69 -0.74 9.37 -1 8 C-1.92 8.77 -2.84 9.55 -3.79 10.34 C-24.04 27.01 -24.04 27.01 -36 29 C-34.2 23.59 -28.62 22.57 -23.86 20.1 C-14.43 14.97 -7.46 7.55 0 0 Z " fill="#D2CDE6" transform="translate(995,563)"/>
<path d="M0 0 C0.66 0 1.32 0 2 0 C6.85 19.53 4.13 38.54 -6 56 C-6.5 56.17 -6.5 56.17 -9 57 C-8 52 -8 52 -5.56 46.25 C-1.27 35.79 -0.62 26.17 -0.38 14.94 C-0.34 13.5 -0.3 12.06 -0.26 10.58 C-0.16 7.05 -0.08 3.53 0 0 Z " fill="#BF5D92" transform="translate(1021,314)"/>
<path d="M0 0 C0.99 0.33 1.98 0.66 3 1 C2.01 1.33 1.02 1.66 0 2 C0 1.34 0 0.68 0 0 Z " fill="#C935C9" transform="translate(657,185)"/>
<path d="M0 0 C0.66 0 1.32 0 2 0 C2 0.66 2 1.32 2 2 C1.34 2 0.68 2 0 2 C0 1.34 0 0.68 0 0 Z " fill="#FFA9A9" transform="translate(688,764)"/>
<path d="M0 0 C0.66 0 1.32 0 2 0 C2 0.66 2 1.32 2 2 C1.34 2 0.68 2 0 2 C0 1.34 0 0.68 0 0 Z " fill="#FFE2E2" transform="translate(1033,698)"/>
<path d="M0 0 C0.66 0 1.32 0 2 0 C2 0.66 2 1.32 2 2 C1.34 2 0.68 2 0 2 C0 1.34 0 0.68 0 0 Z " fill="#E9CACA" transform="translate(592,650)"/>
<path d="M0 0 C0.66 0 1.32 0 2 0 C2 0.66 2 1.32 2 2 C1.34 2 0.68 2 0 2 C0 1.34 0 0.68 0 0 Z " fill="#D32AD3" transform="translate(950,306)"/>
<path d="M0 0 C0.66 0 1.32 0 2 0 C2 0.66 2 1.32 2 2 C1.34 2 0.68 2 0 2 C0 1.34 0 0.68 0 0 Z " fill="#FFA9A9" transform="translate(489,272)"/>
<path d="M0 0 C0.66 0.66 1.32 1.32 2 2 C1.34 2 0.68 2 0 2 C0 1.34 0 0.68 0 0 Z " fill="#E2E2E2" transform="translate(672,736)"/>
</svg>
