<svg width="499" height="667" viewBox="0 0 499 667" xmlns="http://www.w3.org/2000/svg">
  <defs>
    <linearGradient id="shellGradient" x1="28" y1="18" x2="471" y2="649" gradientUnits="userSpaceOnUse">
      <stop offset="0" stop-color="#121214"/>
      <stop offset="0.35" stop-color="#6C6C75"/>
      <stop offset="0.65" stop-color="#F1F1F5"/>
      <stop offset="1" stop-color="#8C53D8"/>
    </linearGradient>
    <linearGradient id="surfaceGradient" x1="55" y1="54" x2="444" y2="179" gradientUnits="userSpaceOnUse">
      <stop offset="0" stop-color="#776A86"/>
      <stop offset="1" stop-color="#42324D"/>
    </linearGradient>
    <linearGradient id="accentGradient" x1="335" y1="366" x2="444" y2="603" gradientUnits="userSpaceOnUse">
      <stop offset="0" stop-color="#F7F3FF"/>
      <stop offset="1" stop-color="#B07FE9"/>
    </linearGradient>
    <filter id="softShadow" x="-25%" y="-25%" width="150%" height="170%" color-interpolation-filters="sRGB"><feDropShadow dx="0" dy="8" stdDeviation="10" flood-color="#0B0910" flood-opacity="0.34"/></filter>
    <filter id="smallShadow" x="-25%" y="-25%" width="150%" height="170%" color-interpolation-filters="sRGB"><feDropShadow dx="0" dy="8" stdDeviation="8" flood-color="#0B0910" flood-opacity="0.3"/></filter>
  </defs>
  <rect x="1.5" y="1.5" width="496" height="664" rx="24.5" fill="url(#shellGradient)" stroke="#E7DDFA" stroke-width="3"/>
  <g filter="url(#softShadow)"><rect x="55" y="54" width="389" height="125" rx="14" fill="url(#surfaceGradient)"/></g>
  <g filter="url(#smallShadow)"><rect x="55" y="239" width="109" height="110" rx="17" fill="url(#surfaceGradient)"/></g>
  <g filter="url(#smallShadow)"><rect x="195" y="239" width="109" height="110" rx="17" fill="url(#surfaceGradient)"/></g>
  <g filter="url(#smallShadow)"><rect x="335" y="239" width="109" height="110" rx="17" fill="url(#surfaceGradient)"/></g>
  <g filter="url(#smallShadow)"><rect x="55" y="366" width="109" height="110" rx="17" fill="url(#surfaceGradient)"/></g>
  <g filter="url(#smallShadow)"><rect x="195" y="366" width="109" height="110" rx="17" fill="url(#surfaceGradient)"/></g>
  <g filter="url(#smallShadow)"><rect x="55" y="493" width="109" height="110" rx="17" fill="url(#surfaceGradient)"/></g>
  <g filter="url(#smallShadow)"><rect x="195" y="493" width="109" height="110" rx="17" fill="url(#surfaceGradient)"/></g>
  <g filter="url(#smallShadow)"><rect x="335" y="366" width="109" height="237" rx="17" fill="url(#accentGradient)"/></g>
</svg>