<svg width="499" height="667" viewBox="0 0 499 667" xmlns="http://www.w3.org/2000/svg">
  <defs>
    <linearGradient id="shellGradient" x1="28" y1="18" x2="471" y2="649" gradientUnits="userSpaceOnUse">
      <stop offset="0" stop-color="#75D8F7"/>
      <stop offset="0.28" stop-color="#F5BDD6"/>
      <stop offset="0.52" stop-color="#FFFFFF"/>
      <stop offset="0.74" stop-color="#F5BDD6"/>
      <stop offset="1" stop-color="#75D8F7"/>
    </linearGradient>
    <linearGradient id="surfaceGradient" x1="55" y1="54" x2="444" y2="179" gradientUnits="userSpaceOnUse">
      <stop offset="0" stop-color="#7A95A9"/>
      <stop offset="1" stop-color="#42617B"/>
    </linearGradient>
    <linearGradient id="accentGradient" x1="335" y1="366" x2="444" y2="603" gradientUnits="userSpaceOnUse">
      <stop offset="0" stop-color="#F5BED6"/>
      <stop offset="0.5" stop-color="#FFFFFF"/>
      <stop offset="1" stop-color="#79DAF7"/>
    </linearGradient>
    <filter id="softShadow" x="-25%" y="-25%" width="150%" height="170%" color-interpolation-filters="sRGB"><feDropShadow dx="0" dy="8" stdDeviation="10" flood-color="#0B1016" flood-opacity="0.34"/></filter>
    <filter id="smallShadow" x="-25%" y="-25%" width="150%" height="170%" color-interpolation-filters="sRGB"><feDropShadow dx="0" dy="8" stdDeviation="8" flood-color="#0B1016" flood-opacity="0.3"/></filter>
  </defs>
  <rect x="1.5" y="1.5" width="496" height="664" rx="24.5" fill="url(#shellGradient)" stroke="#E5F2FA" stroke-width="3"/>
  <g filter="url(#softShadow)"><rect x="55" y="54" width="389" height="125" rx="14" fill="url(#surfaceGradient)"/></g>
  <g filter="url(#smallShadow)"><rect x="55" y="239" width="109" height="110" rx="17" fill="url(#surfaceGradient)"/></g>
  <g filter="url(#smallShadow)"><rect x="195" y="239" width="109" height="110" rx="17" fill="url(#surfaceGradient)"/></g>
  <g filter="url(#smallShadow)"><rect x="335" y="239" width="109" height="110" rx="17" fill="url(#surfaceGradient)"/></g>
  <g filter="url(#smallShadow)"><rect x="55" y="366" width="109" height="110" rx="17" fill="url(#surfaceGradient)"/></g>
  <g filter="url(#smallShadow)"><rect x="195" y="366" width="109" height="110" rx="17" fill="url(#surfaceGradient)"/></g>
  <g filter="url(#smallShadow)"><rect x="55" y="493" width="109" height="110" rx="17" fill="url(#surfaceGradient)"/></g>
  <g filter="url(#smallShadow)"><rect x="195" y="493" width="109" height="110" rx="17" fill="url(#surfaceGradient)"/></g>
  <g filter="url(#smallShadow)"><rect x="335" y="366" width="109" height="237" rx="17" fill="url(#accentGradient)"/></g>
</svg>