<svg width="499" height="667" viewBox="0 0 499 667" xmlns="http://www.w3.org/2000/svg">
  <defs>
    <linearGradient id="shellGradient" x1="28" y1="18" x2="471" y2="649" gradientUnits="userSpaceOnUse">
      <stop offset="0" stop-color="#FCFEFF"/>
      <stop offset="0.42" stop-color="#BFCAD5"/>
      <stop offset="0.7" stop-color="#EAF1F7"/>
      <stop offset="1" stop-color="#ABB9C7"/>
    </linearGradient>
    <linearGradient id="surfaceGradient" x1="55" y1="54" x2="444" y2="179" gradientUnits="userSpaceOnUse">
      <stop offset="0" stop-color="#DCE4EB"/>
      <stop offset="1" stop-color="#8197AB"/>
    </linearGradient>
    <linearGradient id="accentGradient" x1="335" y1="366" x2="444" y2="603" gradientUnits="userSpaceOnUse">
      <stop offset="0" stop-color="#D6DEE5"/>
      <stop offset="1" stop-color="#7F97AA"/>
    </linearGradient>
    <filter id="softShadow" x="-25%" y="-25%" width="150%" height="170%" color-interpolation-filters="sRGB"><feDropShadow dx="0" dy="7" stdDeviation="8" flood-color="#9EA8B2" flood-opacity="0.28"/></filter>
    <filter id="smallShadow" x="-25%" y="-25%" width="150%" height="170%" color-interpolation-filters="sRGB"><feDropShadow dx="0" dy="7" stdDeviation="7" flood-color="#A7B1BA" flood-opacity="0.24"/></filter>
  </defs>
  <rect x="4" y="4" width="491" height="659" rx="22" fill="url(#shellGradient)" stroke="#7F93A7" stroke-width="8"/>
  <g filter="url(#softShadow)"><rect x="55" y="54" width="389" height="125" rx="14" fill="url(#surfaceGradient)"/></g>
  <g filter="url(#smallShadow)"><rect x="55" y="239" width="109" height="110" rx="17" fill="url(#surfaceGradient)"/></g>
  <g filter="url(#smallShadow)"><rect x="195" y="239" width="109" height="110" rx="17" fill="url(#surfaceGradient)"/></g>
  <g filter="url(#smallShadow)"><rect x="335" y="239" width="109" height="110" rx="17" fill="url(#surfaceGradient)"/></g>
  <g filter="url(#smallShadow)"><rect x="55" y="366" width="109" height="110" rx="17" fill="url(#surfaceGradient)"/></g>
  <g filter="url(#smallShadow)"><rect x="195" y="366" width="109" height="110" rx="17" fill="url(#surfaceGradient)"/></g>
  <g filter="url(#smallShadow)"><rect x="55" y="493" width="109" height="110" rx="17" fill="url(#surfaceGradient)"/></g>
  <g filter="url(#smallShadow)"><rect x="195" y="493" width="109" height="110" rx="17" fill="url(#surfaceGradient)"/></g>
  <g filter="url(#smallShadow)"><rect x="335" y="366" width="109" height="237" rx="17" fill="url(#accentGradient)"/></g>
</svg>