<svg width="499" height="667" viewBox="0 0 499 667" xmlns="http://www.w3.org/2000/svg" role="img" aria-label="Roselt Calculator South Africa theme logo">
  <defs>
    <linearGradient id="shellGradient" x1="28" y1="18" x2="471" y2="649" gradientUnits="userSpaceOnUse">
      <stop offset="0" stop-color="#132c2b"/>
      <stop offset="1" stop-color="#3d7875"/>
    </linearGradient>
    <linearGradient id="surfaceGradient" x1="55" y1="54" x2="444" y2="179" gradientUnits="userSpaceOnUse">
      <stop offset="0" stop-color="#173836"/>
      <stop offset="1" stop-color="#1d4541"/>
    </linearGradient>
    <linearGradient id="glossGradient" x1="86" y1="24" x2="310" y2="236" gradientUnits="userSpaceOnUse">
      <stop offset="0" stop-color="#ffffff" stop-opacity="0.08"/>
      <stop offset="1" stop-color="#ffffff" stop-opacity="0"/>
    </linearGradient>
    <filter id="softShadow" x="-25%" y="-25%" width="150%" height="170%" color-interpolation-filters="sRGB">
      <feDropShadow dx="0" dy="8" stdDeviation="10" flood-color="#0a1213" flood-opacity="0.34"/>
    </filter>
    <filter id="smallShadow" x="-25%" y="-25%" width="150%" height="170%" color-interpolation-filters="sRGB">
      <feDropShadow dx="0" dy="8" stdDeviation="8" flood-color="#0a1213" flood-opacity="0.9"/>
    </filter>
  </defs>
  <rect x="1.5" y="1.5" width="496" height="664" rx="24.5" fill="url(#shellGradient)" stroke="#3d7875" stroke-width="3"/>
  <path d="M48 28C142 12 274 10 395 27C429 32 454 52 463 85L480 150C420 81 268 45 121 57C91 60 65 48 48 28Z" fill="url(#glossGradient)" opacity="0.9"/>
  <g filter="url(#softShadow)">
    <rect x="55" y="54" width="389" height="125" rx="14" fill="url(#surfaceGradient)"/>
  </g>
  <path d="M55 366H444V416H237L55 366Z" fill="#d44945"/>
  <path d="M55 416H216L444 493V543H55V416Z" fill="#245988"/>
  <path d="M55 357L234 416L55 552V610L285 452L444 505V449L309 404L444 357V302L283 381L55 302V357Z" fill="#f0bc3b"/>
  <path d="M55 379L201 416L55 530V571L250 432L444 488V464L286 416L444 344V321L250 401L55 291V379Z" fill="#101012"/>
  <path d="M55 402L166 416L55 503V540L236 428L444 482V470L272 416L444 336V324L236 405L55 294V402Z" fill="#1d7a55"/>
  <g opacity="0.88">
    <rect x="88" y="95" width="214" height="12" rx="6" fill="#f4fbf6"/>
    <rect x="88" y="122" width="152" height="12" rx="6" fill="#f4fbf6" opacity="0.58"/>
  </g>
  <g filter="url(#smallShadow)"><rect x="55" y="239" width="109" height="110" rx="17" fill="url(#surfaceGradient)"/></g>
  <g filter="url(#smallShadow)"><rect x="195" y="239" width="109" height="110" rx="17" fill="url(#surfaceGradient)"/></g>
  <g filter="url(#smallShadow)"><rect x="335" y="239" width="109" height="110" rx="17" fill="url(#surfaceGradient)"/></g>
  <g filter="url(#smallShadow)"><rect x="55" y="366" width="109" height="110" rx="17" fill="#d44945" opacity="0.12"/></g>
  <g filter="url(#smallShadow)"><rect x="195" y="366" width="109" height="110" rx="17" fill="#1d7a55" opacity="0.12"/></g>
  <g filter="url(#smallShadow)"><rect x="55" y="493" width="109" height="110" rx="17" fill="#245988" opacity="0.12"/></g>
  <g filter="url(#smallShadow)"><rect x="195" y="493" width="109" height="110" rx="17" fill="#f0bc3b" opacity="0.12"/></g>
  <g filter="url(#smallShadow)"><rect x="335" y="366" width="109" height="237" rx="17" fill="#1d7a55"/></g>
</svg>