<svg width="499" height="667" viewBox="0 0 499 667" xmlns="http://www.w3.org/2000/svg" role="img" aria-label="Roselt Calculator unicorn theme logo">
  <defs>
    <linearGradient id="shellGradient" x1="28" y1="18" x2="471" y2="649" gradientUnits="userSpaceOnUse">
      <stop offset="0" stop-color="#f5e9ff"/>
      <stop offset="1" stop-color="rgba(238, 221, 255, 0.98)"/>
    </linearGradient>
    <linearGradient id="surfaceGradient" x1="55" y1="54" x2="444" y2="179" gradientUnits="userSpaceOnUse">
      <stop offset="0" stop-color="rgba(255, 250, 255, 0.92)"/>
      <stop offset="1" stop-color="rgba(255, 250, 255, 0.92)"/>
    </linearGradient>
    <linearGradient id="accentGradient" x1="335" y1="366" x2="444" y2="603" gradientUnits="userSpaceOnUse">
      <stop offset="0" stop-color="#ffa8de"/>
      <stop offset="1" stop-color="#f87bcc"/>
    </linearGradient>
    <linearGradient id="glossGradient" x1="86" y1="24" x2="310" y2="236" gradientUnits="userSpaceOnUse">
      <stop offset="0" stop-color="rgba(255, 255, 255, 0.34)"/>
      <stop offset="1" stop-color="rgba(255,255,255,0)"/>
    </linearGradient>
    <filter id="softShadow" x="-25%" y="-25%" width="150%" height="170%" color-interpolation-filters="sRGB">
      <feDropShadow dx="0" dy="8" stdDeviation="10" flood-color="rgba(132, 146, 176, 0.28)" flood-opacity="1"/>
    </filter>
    <filter id="smallShadow" x="-25%" y="-25%" width="150%" height="170%" color-interpolation-filters="sRGB">
      <feDropShadow dx="0" dy="8" stdDeviation="8" flood-color="rgba(132, 146, 176, 0.28)" flood-opacity="0.9"/>
    </filter>
  </defs>
  <rect x="3" y="3" width="493" height="661" rx="23" fill="url(#shellGradient)" stroke="#b967d6" stroke-width="6"/>
  <path d="M48 28C142 12 274 10 395 27C429 32 454 52 463 85L480 150C420 81 268 45 121 57C91 60 65 48 48 28Z" fill="url(#glossGradient)" opacity="0.9"/>
  <g filter="url(#softShadow)">
    <rect x="55" y="54" width="389" height="125" rx="14" fill="url(#surfaceGradient)" stroke="#a865d0" stroke-width="5"/>
  </g>
  <g opacity="0.88">
    <rect x="88" y="95" width="214" height="12" rx="6" fill="#7e42b3"/>
    <rect x="88" y="122" width="152" height="12" rx="6" fill="#7e42b3" opacity="0.6"/>
  </g>
  <g filter="url(#smallShadow)"><rect x="55" y="239" width="109" height="110" rx="17" fill="url(#surfaceGradient)" stroke="#bb83dd" stroke-width="4"/></g>
  <g filter="url(#smallShadow)"><rect x="195" y="239" width="109" height="110" rx="17" fill="url(#surfaceGradient)" stroke="#bb83dd" stroke-width="4"/></g>
  <g filter="url(#smallShadow)"><rect x="335" y="239" width="109" height="110" rx="17" fill="url(#surfaceGradient)" stroke="#bb83dd" stroke-width="4"/></g>
  <g filter="url(#smallShadow)"><rect x="55" y="366" width="109" height="110" rx="17" fill="url(#surfaceGradient)" stroke="#bb83dd" stroke-width="4"/></g>
  <g filter="url(#smallShadow)"><rect x="195" y="366" width="109" height="110" rx="17" fill="url(#surfaceGradient)" stroke="#bb83dd" stroke-width="4"/></g>
  <g filter="url(#smallShadow)"><rect x="55" y="493" width="109" height="110" rx="17" fill="url(#surfaceGradient)" stroke="#bb83dd" stroke-width="4"/></g>
  <g filter="url(#smallShadow)"><rect x="195" y="493" width="109" height="110" rx="17" fill="url(#surfaceGradient)" stroke="#bb83dd" stroke-width="4"/></g>
  <g filter="url(#smallShadow)"><rect x="335" y="366" width="109" height="237" rx="17" fill="url(#accentGradient)" stroke="#c654a7" stroke-width="4"/></g>
</svg>
